<?xml version="1.0" encoding="UTF-8"?>
<svg id="Layer_1" xmlns="http://www.w3.org/2000/svg" xmlns:xlink="http://www.w3.org/1999/xlink" version="1.1" viewBox="0 0 88.15 88.15">
  <!-- Generator: Adobe Illustrator 29.8.1, SVG Export Plug-In . SVG Version: 2.1.1 Build 2)  -->
  <defs>
    <style>
      .st0, .st1 {
        fill: none;
      }

      .st2 {
        stroke-width: .37px;
      }

      .st2, .st3 {
        fill: #fff;
      }

      .st2, .st1 {
        stroke: #fff;
        stroke-miterlimit: 10;
      }

      .st1 {
        stroke-width: 1.57px;
      }

      .st4 {
        clip-path: url(#clippath);
      }
    </style>
    <clipPath id="clippath">
      <rect class="st0" x="21.39" y="19.27" width="44.73" height="59.72" rx="22.37" ry="22.37"/>
    </clipPath>
  </defs>
  <path class="st3" d="M43.76,78.97l-.75.17-.74-.17-.73-.11h-.75s-.76.02-.76.02l-.7-.31-.75-.02-.69-.3-.74-.12-.68-.3-.72-.2-.73-.17-.7-.27-.63-.42-.68-.31-.62-.41-.74-.21-.58-.48-.62-.41-.59-.46-.68-.34-.58-.47-.56-.49-.44-.62-.54-.51-.54-.51-.46-.58-.58-.48-.31-.7-.48-.57-.39-.63-.47-.58-.29-.69-.37-.64-.41-.63-.34-.66-.19-.72-.3-.68-.12-.74-.29-.69-.24-.71-.2-.72-.09-.75.03-.76-.18-.73.04-.75-.18-.74.04-.75-.07-.75-.08-.75.15-.75-.17-.75.2-.75-.04-.75-.04-.75.03-.75.12-.75-.18-.75.17-.75-.14-.76.13-.75-.1-.76.22-.75-.17-.76.12-.75.05-.75-.05-.76-.05-.76v-.76s.19-.75.19-.75l.18-.74-.02-.76.03-.76.21-.73.1-.74.43-.65.09-.74.34-.66.13-.74.44-.62.15-.74.36-.65.42-.62.26-.7.39-.63.47-.58.53-.53.39-.63.44-.59.4-.64.62-.44.55-.49.38-.68.59-.45.66-.36.46-.61.63-.4.67-.33.63-.38.61-.42.59-.45.67-.31.66-.33.71-.23.7-.23.68-.27.65-.38.69-.27.77.03.68-.34.74-.06.71-.24.73-.11.74-.04.75.08.74-.02.75.04.75-.03.75.03.74.14h.75s.74.11.74.11l.71.24.75.08.7.25.74.13.71.23.71.25.66.35.65.36.75.17.65.38.63.41.65.37.55.52.7.31.56.5.53.53.56.5.55.5.49.56.57.49.54.53.51.55.33.69.41.62.51.56.34.67.34.67.43.61.29.69.38.65.17.74.24.71.39.66.17.73.07.75.27.7.17.73.09.74.18.76.07.78.05.78-.08.78.09.78-.04.78-.04.78-.02.76v.76s.04.76.04.76v.76s.05.76.05.76v.76s-.15.76-.15.76l.11.75.04.75.05.75-.15.75v.75s.08.75.08.75l-.08.75-.06.75.2.76-.23.74.14.76-.17.74.02.76-.25.73-.09.74-.15.73v.77s-.32.69-.32.69l-.06.76-.35.67-.26.7-.26.7-.25.7-.44.61-.25.71-.39.64-.47.58-.47.58-.3.7-.58.49-.41.62-.53.53-.53.52-.52.54-.46.6-.63.41-.62.41-.58.46-.56.49-.65.37-.66.35-.64.37-.67.32-.66.35-.68.29-.68.3-.62.47-.72.2-.74.13-.72.16-.69.3-.74.08-.75.03-.72.2-.73.13-.75-.08-.74.06-.72.03-.02-.05ZM43.76,79.01l.74-.19.75.1.75-.02.73-.18.72-.25.77.04.7-.31.75-.08.69-.3.73-.17.68-.32.64-.39.66-.34.72-.23.64-.39.68-.33.52-.56.67-.35.59-.46.6-.45.47-.6.54-.51.53-.53.63-.44.48-.57.44-.61.49-.57.32-.69.56-.53.34-.67.39-.64.26-.71.41-.63.28-.69.19-.73.21-.72.32-.68.16-.73.3-.7.07-.75.08-.75.06-.75.13-.73.19-.73-.06-.75.12-.74-.13-.75.06-.74-.06-.75-.09-.76.14-.76-.18-.76.19-.76-.06-.76-.06-.76.02-.76.11-.76-.18-.76.14-.76-.16-.76.12-.76-.11-.76.21-.76-.17-.78.11-.78.02-.78-.1-.78-.13-.77-.11-.77.04-.79-.02-.79-.27-.74-.28-.73-.14-.74-.3-.69-.02-.78-.4-.65-.2-.73-.45-.61-.2-.74-.52-.57-.36-.65-.35-.67-.54-.54-.45-.59-.42-.62-.4-.65-.57-.5-.55-.51-.63-.42-.46-.61-.55-.51-.73-.27-.58-.48-.54-.54-.74-.22-.62-.42-.62-.44-.66-.35-.7-.26-.73-.19-.69-.28-.71-.22-.7-.28-.72-.23-.74-.14-.76.02-.75-.04-.72-.31-.76.12-.74-.12-.75.12-.75.03-.75.02-.76-.06-.75.1-.75.08-.73.21-.73.2-.74.14-.68.33-.7.26-.73.19-.65.38-.7.27-.62.43-.64.38-.63.41-.66.36-.65.39-.48.6-.59.46-.59.47-.52.54-.61.45-.39.66-.52.54-.51.55-.44.61-.42.62-.44.61-.31.69-.3.69-.28.69-.44.62-.3.69-.14.75-.29.7-.24.71-.08.75-.19.73-.04.75-.22.73-.11.75.1.76-.09.75-.14.75.11.75.04.75v.75s.1.76.1.76v.76s.03.76.03.76l-.09.76.1.76-.03.76-.03.76v.76s0,.76,0,.76l.04.76v.76s.06.76.06.76v.76s-.14.76-.14.76l.11.74.04.74.07.74-.12.75.06.74.14.73v.75s.07.74.07.74l.34.69-.05.77.35.68.08.75.31.68.09.76.29.69.28.69.48.6.22.72.5.57.29.69.41.62.46.61.5.57.38.67.58.5.51.56.47.6.51.57.68.37.49.6.66.39.6.48.63.43.66.38.73.26.63.44.66.39.71.29.74.21.7.3.62.23.64.18.63.2.67.11.66.12.65.09.69-.14.66.09.66.13.63.06.03.04Z"/>
  <g>
    <g class="st4">
      <g>
        <path class="st3" d="M55.57,76.34c-.2.06-.4.14-.6.19-.2.06-.43,0-.63.06-.2.05-.39.16-.59.21-.2.05-.38.22-.59.26-.2.04-.42.07-.62.1-.21.03-.42,0-.63.03-.21.03-.42.02-.63.04-.21.02-.4.16-.61.18-.21.02-.43-.08-.64-.07-.21.01-.41.19-.62.19-.21,0-.42-.14-.63-.14,0,0,0,.13,0,.13-.21,0-.42-.24-.62-.24-.21,0-.43.25-.64.24-.21-.01-.41-.19-.62-.21-.21-.02-.42.01-.63-.01-.21-.02-.39-.25-.6-.28-.21-.03-.45.15-.65.12-.21-.03-.39-.17-.6-.21-.21-.04-.44.05-.64,0-.2-.05-.37-.23-.58-.29-.2-.05-.37-.22-.57-.27-.2-.06-.47.11-.67.04-.2-.06-.36-.25-.55-.32-.2-.07-.42-.06-.62-.14-.2-.07-.43-.06-.62-.14-.19-.08-.29-.39-.48-.47-.19-.09-.49.06-.68-.03-.19-.09-.26-.41-.45-.51-.19-.1-.48.02-.67-.08-.18-.1-.22-.46-.4-.57-.18-.11-.45-.06-.63-.17-.18-.11-.33-.25-.51-.37-.17-.12-.29-.32-.46-.44-.17-.12-.36-.21-.53-.34-.17-.13-.46-.09-.62-.22-.16-.13-.18-.44-.34-.57-.16-.14-.46-.11-.62-.25-.16-.14-.12-.49-.27-.63-.15-.14-.37-.21-.52-.36s-.33-.26-.48-.41c-.14-.15-.22-.36-.36-.52s-.44-.18-.57-.33c-.13-.16-.3-.3-.43-.46-.13-.16-.05-.49-.18-.66-.13-.17-.31-.29-.43-.46-.12-.17-.21-.36-.33-.54-.12-.17-.37-.26-.48-.44-.11-.18-.02-.48-.13-.66-.11-.18-.35-.28-.45-.46-.1-.18-.27-.33-.36-.52-.1-.19-.24-.35-.33-.54-.09-.19-.08-.43-.17-.62-.09-.19-.14-.39-.22-.59-.08-.19,0-.45-.08-.64-.07-.2-.28-.34-.35-.54-.07-.2,0-.44-.07-.64-.06-.2-.31-.34-.37-.54-.06-.2-.21-.38-.26-.58-.05-.2-.02-.43-.06-.63-.05-.2-.11-.41-.15-.61-.04-.2-.11-.41-.15-.61-.03-.21-.08-.41-.1-.62-.03-.21.23-.45.2-.66-.02-.21-.19-.4-.21-.61-.02-.21-.12-.41-.13-.62-.01-.21.09-.42.08-.63,0-.21.1-.42.1-.63,0-.31-.07-.31-.07-.62s-.22-.31-.22-.62.21-.31.21-.62-.05-.31-.05-.62,0-.31,0-.62.13-.31.13-.62-.24-.31-.24-.62,0-.31,0-.62.05-.31.05-.62-.06-.31-.06-.62.23-.31.23-.62-.06-.31-.06-.62-.11-.31-.11-.62.1-.31.1-.62.13-.31.13-.62-.22-.31-.22-.62.16-.31.16-.62-.23-.31-.23-.62.14-.31.14-.62c0-.21.02-.42.03-.63,0-.21.05-.42.06-.62.01-.21.09-.41.1-.62.02-.21-.15-.43-.13-.64.02-.21.09-.41.12-.62.03-.21.16-.4.19-.6.03-.21.14-.4.18-.6.04-.21-.13-.45-.08-.66.05-.2.06-.42.11-.62.05-.2.18-.39.23-.59.06-.2.29-.35.36-.55.06-.2.11-.4.18-.6.07-.2.17-.38.25-.57.07-.2-.14-.51-.06-.7.08-.19.4-.29.48-.48.09-.19.21-.36.3-.55.09-.19-.09-.51,0-.7.1-.19.42-.25.52-.44.1-.18.27-.32.38-.5.11-.18.18-.38.29-.55.11-.18.12-.42.24-.59.12-.17.24-.34.36-.51.12-.17.16-.4.28-.57.13-.17.42-.21.55-.37.13-.16.25-.33.39-.49s.31-.28.45-.44.16-.42.31-.57c.14-.15.41-.18.56-.33s.29-.29.44-.44c.15-.14.12-.49.28-.63.16-.14.48-.09.64-.23s.27-.32.44-.45c.16-.13.25-.36.42-.48.17-.13.33-.26.5-.38.17-.12.3-.31.47-.42.17-.12.37-.2.55-.32.18-.11.34-.25.52-.35.18-.11.38-.19.56-.29.18-.1.42-.1.61-.2.19-.1.37-.2.56-.29.19-.09.39-.15.58-.24.19-.09.34-.26.54-.34.19-.08.43-.04.63-.12.2-.07.36-.25.55-.32.2-.07.4-.14.6-.2.2-.06.38-.19.59-.24.2-.06.41-.1.61-.16.2-.05.45.09.66.04.2-.05.38-.21.59-.25.2-.04.43.01.63-.02.21-.03.43.07.64.04.21-.03.41-.08.61-.11.21-.02.39-.31.6-.32.21-.02.43.24.64.23.21-.01.41-.27.62-.28.21,0,.42.13.63.13,0,0,0-.07,0-.07.21,0,.42-.05.63-.04.21,0,.41.27.62.28.21.01.42-.09.63-.07.21.02.4.14.61.16.21.02.42-.01.63.02.21.03.43-.05.64-.02.21.03.39.21.59.25.21.04.42.02.63.07.2.05.38.18.59.23.2.05.44-.02.64.03.2.06.4.11.6.18.2.06.37.22.57.28.11.04.22.05.34.06-3.06-1.88-6.66-2.98-10.51-2.98h-4.41c-11.13,0-20.16,9.03-20.16,20.16v19.4c0,11.13,9.03,20.16,20.16,20.16h4.41c3.66,0,7.09-.99,10.05-2.7-.15.01-.3,0-.44.05Z"/>
        <path class="st1" d="M55.57,76.34c-.2.06-.4.14-.6.19-.2.06-.43,0-.63.06-.2.05-.39.16-.59.21-.2.05-.38.22-.59.26-.2.04-.42.07-.62.1-.21.03-.42,0-.63.03-.21.03-.42.02-.63.04-.21.02-.4.16-.61.18-.21.02-.43-.08-.64-.07-.21.01-.41.19-.62.19-.21,0-.42-.14-.63-.14,0,0,0,.13,0,.13-.21,0-.42-.24-.62-.24-.21,0-.43.25-.64.24-.21-.01-.41-.19-.62-.21-.21-.02-.42.01-.63-.01-.21-.02-.39-.25-.6-.28-.21-.03-.45.15-.65.12-.21-.03-.39-.17-.6-.21-.21-.04-.44.05-.64,0-.2-.05-.37-.23-.58-.29-.2-.05-.37-.22-.57-.27-.2-.06-.47.11-.67.04-.2-.06-.36-.25-.55-.32-.2-.07-.42-.06-.62-.14-.2-.07-.43-.06-.62-.14-.19-.08-.29-.39-.48-.47-.19-.09-.49.06-.68-.03-.19-.09-.26-.41-.45-.51-.19-.1-.48.02-.67-.08-.18-.1-.22-.46-.4-.57-.18-.11-.45-.06-.63-.17-.18-.11-.33-.25-.51-.37-.17-.12-.29-.32-.46-.44-.17-.12-.36-.21-.53-.34-.17-.13-.46-.09-.62-.22-.16-.13-.18-.44-.34-.57-.16-.14-.46-.11-.62-.25-.16-.14-.12-.49-.27-.63-.15-.14-.37-.21-.52-.36s-.33-.26-.48-.41c-.14-.15-.22-.36-.36-.52s-.44-.18-.57-.33c-.13-.16-.3-.3-.43-.46-.13-.16-.05-.49-.18-.66-.13-.17-.31-.29-.43-.46-.12-.17-.21-.36-.33-.54-.12-.17-.37-.26-.48-.44-.11-.18-.02-.48-.13-.66-.11-.18-.35-.28-.45-.46-.1-.18-.27-.33-.36-.52-.1-.19-.24-.35-.33-.54-.09-.19-.08-.43-.17-.62-.09-.19-.14-.39-.22-.59-.08-.19,0-.45-.08-.64-.07-.2-.28-.34-.35-.54-.07-.2,0-.44-.07-.64-.06-.2-.31-.34-.37-.54-.06-.2-.21-.38-.26-.58-.05-.2-.02-.43-.06-.63-.05-.2-.11-.41-.15-.61-.04-.2-.11-.41-.15-.61-.03-.21-.08-.41-.1-.62-.03-.21.23-.45.2-.66-.02-.21-.19-.4-.21-.61-.02-.21-.12-.41-.13-.62-.01-.21.09-.42.08-.63,0-.21.1-.42.1-.63,0-.31-.07-.31-.07-.62s-.22-.31-.22-.62.21-.31.21-.62-.05-.31-.05-.62,0-.31,0-.62.13-.31.13-.62-.24-.31-.24-.62,0-.31,0-.62.05-.31.05-.62-.06-.31-.06-.62.23-.31.23-.62-.06-.31-.06-.62-.11-.31-.11-.62.1-.31.1-.62.13-.31.13-.62-.22-.31-.22-.62.16-.31.16-.62-.23-.31-.23-.62.14-.31.14-.62c0-.21.02-.42.03-.63,0-.21.05-.42.06-.62.01-.21.09-.41.1-.62.02-.21-.15-.43-.13-.64.02-.21.09-.41.12-.62.03-.21.16-.4.19-.6.03-.21.14-.4.18-.6.04-.21-.13-.45-.08-.66.05-.2.06-.42.11-.62.05-.2.18-.39.23-.59.06-.2.29-.35.36-.55.06-.2.11-.4.18-.6.07-.2.17-.38.25-.57.07-.2-.14-.51-.06-.7.08-.19.4-.29.48-.48.09-.19.21-.36.3-.55.09-.19-.09-.51,0-.7.1-.19.42-.25.52-.44.1-.18.27-.32.38-.5.11-.18.18-.38.29-.55.11-.18.12-.42.24-.59.12-.17.24-.34.36-.51.12-.17.16-.4.28-.57.13-.17.42-.21.55-.37.13-.16.25-.33.39-.49s.31-.28.45-.44.16-.42.31-.57c.14-.15.41-.18.56-.33s.29-.29.44-.44c.15-.14.12-.49.28-.63.16-.14.48-.09.64-.23s.27-.32.44-.45c.16-.13.25-.36.42-.48.17-.13.33-.26.5-.38.17-.12.3-.31.47-.42.17-.12.37-.2.55-.32.18-.11.34-.25.52-.35.18-.11.38-.19.56-.29.18-.1.42-.1.61-.2.19-.1.37-.2.56-.29.19-.09.39-.15.58-.24.19-.09.34-.26.54-.34.19-.08.43-.04.63-.12.2-.07.36-.25.55-.32.2-.07.4-.14.6-.2.2-.06.38-.19.59-.24.2-.06.41-.1.61-.16.2-.05.45.09.66.04.2-.05.38-.21.59-.25.2-.04.43.01.63-.02.21-.03.43.07.64.04.21-.03.41-.08.61-.11.21-.02.39-.31.6-.32.21-.02.43.24.64.23.21-.01.41-.27.62-.28.21,0,.42.13.63.13,0,0,0-.07,0-.07.21,0,.42-.05.63-.04.21,0,.41.27.62.28.21.01.42-.09.63-.07.21.02.4.14.61.16.21.02.42-.01.63.02.21.03.43-.05.64-.02.21.03.39.21.59.25.21.04.42.02.63.07.2.05.38.18.59.23.2.05.44-.02.64.03.2.06.4.11.6.18.2.06.37.22.57.28.11.04.22.05.34.06-3.06-1.88-6.66-2.98-10.51-2.98h-4.41c-11.13,0-20.16,9.03-20.16,20.16v19.4c0,11.13,9.03,20.16,20.16,20.16h4.41c3.66,0,7.09-.99,10.05-2.7-.15.01-.3,0-.44.05Z"/>
      </g>
      <rect class="st0" x="21.39" y="19.27" width="44.73" height="59.72" rx="22.37" ry="22.37"/>
    </g>
    <g>
      <path class="st3" d="M55.4,29.35h0s0,0,0,0h0ZM54.82,55.43l-.24-.1.09.19-.19.09c.12,0,.17.03.28,0,0-.05.07-.17.05-.19ZM51.7,48.21c-.16-.24-.34-.36-.61-.55-.03-.02-.04-.09-.08-.12-.05-.03-.35-.09-.42-.09-.34-.02-.77.07-1.1.18-.26.09-.53.3-.76.37-.19.06-.46.08-.62.19-.04.03-.03.11-.08.12-.06,0-.16-.02-.2,0-.01,0-.03.09-.08.13-.09.09-.21.04-.12.24-.12-.1-.3.11-.38.21-.04.05-.04.13-.07.17-.04.06-.14.03-.16.05-.01.01-.08.28-.06.32h-.13c-.03.08-.02.19-.06.25,0,.02-.2.3-.21.31-.09.09-.21.07-.17.29-.08-.08-.28.13-.31.19-.03.06-.01.14-.03.18-.02.02-.18.09-.22.11l.09.23s-.23.15-.23.17c0,.04.05.12.04.18,0,.09-.14.21-.19.29-.02.08.16.12.02.2-.09-.08-.2-.15-.31-.21-.12-.06-.11-.06-.2-.11-.05-.03-.13,0-.17-.02-.02-.01-.13-.31-.19-.39-.3-.36-.96-.88-1.36-1.12-.23-.14-.29-.14-.53-.21-.15-.05-.27-.1-.36-.17-.25-.18-.25-.07-.41-.1-.04-.01-.13-.09-.21-.12-.15-.06-.54-.19-.53.04h-.09s.05-.14.05-.14c-.24-.07-.18.19-.38.14l.02-.14c-.1.03-.18.12-.29.13-.09,0-.18-.07-.25-.02-.06.05-.06.21-.24.17-.04.16.16.05.19.19-.23-.07-.33.06-.52.17l.09.07c-.08.03-.21.03-.27.06-.01,0-.01.06-.04.08-.15.13-.43.48-.41.71l-.11.05.05.25-.15.1c.13.08.02.21.1.33l-.1.06c-.03.12.08.33.08.37,0,.05-.12.17-.08.26l.19-.05s-.26.28.05.24l-.14.05c.01.22.2.35.1.57l.14-.03.09-.16.05.28c.12.02.24.04.35.1.06.03.36.3.39.34.05.07-.03.22.15.23l-.04.15.19.15c-.06.06-.14.15-.14.23,0,.07.13.65.15.68.02.01.05.01.08.01l-.09.09.19-.03.12.22.09-.09c.13.08.01.17.02.28h.19l-.14.09c-.03.11.11.13.13.22,0,.04-.02.19-.01.28.02.17.19.33.2.38,0,.04-.03.09-.02.13.03.17.09.2.22.29l-.19.09c.19.14.18.3.14.51l.1.05-.05.49.18.05c.01.07-.08.04-.12.09-.04.05-.05.15-.07.21l.24.22h-.24c-.05.26.25.25.05.49l.12.2-.09.14c.19.22-.04.46.14.68h-.14c.02.14.14.28.12.43-.01.09-.08.15-.1.22-.04.12-.01.28-.15.32.1.1.22.17.19.33,0,.05-.17.02-.15.19,0,.04.14,0,.1.12l-.14.05c.15-.03.16.24.19.28.01.01.25.02.37.1,0,0-.05.1-.05.16.01.19.26.18.4.17l.03-.1h.09s0,.08,0,.08l.18.04s.04.04.05.07c.1,0,.35-.11.44-.1.03,0,.04.12.12.11l-.04.09.19-.05-.05-.14.28.05-.05-.09c.18.03.32-.14.47-.05v-.23s.19-.05.19-.05l-.09-.09v-.05s.12-.04.12-.04l-.03-.12.1-.06c-.05-.22.21-.14.11-.39l.21-.12c.03-.09-.05-.19-.05-.28,0-.12.07-.23.05-.38-.02-.17-.29-.44-.34-.63l-.14.05.02-.14c-.06-.07-.1-.1-.19-.06l-.05-.03c.07-.22-.28-.25-.26-.47h-.23c-.01-.09.08-.03.13-.06.17-.12.03-.49,0-.65h-.19c-.02-.08.05-.1.07-.15.03-.08-.07-.11.17-.14.05-.06-.13-.4-.13-.45,0-.03.06-.07.07-.1.01-.04-.07-.65-.09-.67h-.23s.1-.17.1-.17l-.1-.05c-.03-.17.08-.18.12-.26.07-.13-.11-.44-.16-.6-.08-.3-.06-.77-.34-.93.23-.23-.13-.5.23-.59l.05.16c.04.1.23-.04.19-.07l-.09-.09h.61s-.09.09-.09.09h.16c.06,0,.05-.3.19-.28l-.02.19c.08.03.2-.04.26-.03.07,0,.11.16.21.13v-.19s.13.01.13.01l.03.08.12-.19c.1-.02.14.09.21.14.18.13.43.32.66.24l.05.09.23-.05s0,.14.1.06l.02.08.05-.14.09.04.03-.09c.12.07.29.06.33.19l.12-.05c-.05-.09-.08-.16.02-.24.07.11-.06.29.14.24.08-.02.08-.17.07-.24l.21.09.07-.19c.12,0,.18.07.26-.05l.05.09.12-.19.12.04c.05-.16.21-.1.35-.09v-.13s.13-.02.13-.02l.03-.08.12.04-.02-.09.24-.19.05.09.21-.1-.05-.14c.2-.04.25-.3.47-.29l-.02-.09c.11-.04.3-.17.39-.25.03-.03-.02-.12.11-.03v-.14s.09.04.09.04l.05-.09c0,.16.03.34-.14.4l.1.14-.14.17.19-.05c.01.19-.13.45.1.54l-.09.05c.14.17.46.19.47.43-.23.08-.06.31-.12.43-.05.1-.14.1-.15.11-.02.03.1.56-.15.59.15.26-.11.3-.13.38-.04.11.03.2.04.3h-.13c-.12.09.19.47-.15.43l.09.17-.14.1.1.19c-.25.12-.14.22-.15.37,0,.06-.09.25-.11.34-.01.07.08.09-.07.15v.18c.27.13-.03.19-.05.24l.09.21c-.22.03-.13.18-.15.29-.04.23-.13.39.01.6h-.14v.13s.09.03.09.03c-.11.08-.12.16-.14.28l.14.05c-.02.09-.14.12-.16.18-.03.08,0,.31-.01.42,0,.03-.05.08-.06.12-.01.08.03.16,0,.25l.14.02-.19.19.1.19-.1.05.1.19c-.15.04-.14.15,0,.19-.15.09-.07.24-.09.37,0,.04-.08.02-.11.09-.03.07-.02.2,0,.27l-.13.08c0,.08.03.16.03.24,0,.09-.08.12.06.11v.05c-.07,0-.22.12-.23.17-.02.07.12.12.09.21l-.14.02c-.04.19-.17.33-.37.31l-.05.37-.09-.07-.09.05.09.37-.18.15c.16.1.05.29.23.31-.06.15-.1.21.1.18l-.14.05.14.14-.24.02c.09.14.28.1.42.17l-.1.11-.09.03v-.14s-.24-.03-.24-.03c-.1.07-.03.24,0,.33l-.1.05c.08.04.16.48.14.49-.03.02-.11-.03-.09.05l.1.03c-.11.22-.01.42-.01.61,0,.21-.03.44,0,.65l.1.05c-.21.14.03.4.03.47,0,.05-.22.27.01.33-.06.74.06,1.52.1,2.27.02.53.08,1.23-.04,1.71-.02.07.02.3-.01.39l.09-.09c0,.06.04.11.05.17.02.13-.15.03-.14.09.01.05.08.12.05.21l.09-.09-.08.15v.23s.04-.14.04-.14c.17.06.01.22.1.35l-.1.05c.06-.03.19,1.46.19,1.57,0,.14-.01.28.01.42s.12.26.15.4c.04.22-.07.49-.31.52.05.02.16.07.1.13-.04.04-.18-.1-.24.02.09.06.03.15.12.21.13.08.13-.02.18-.03.02,0,.19.07.2.09.04.04.06.18.1.24.03.05.09.05.12.08.12.11.12.28.09.43l.07.05.05-.19c.03.19.11.42.33.28l-.05.24h.14c-.03-.06-.04-.1.02-.14l.26.05v.16s.09.05.09.05l-.04.12c.1-.03.62.11.52.24l-.09.02.23.17-.04.09s.26.08.31.11c.08.05.1.23.27.18l-.12.04c.11.17.33.21.52.19l.05.26.28.07.09-.19c-.03.24-.1.35.16.48l.48.08c.02.17.1.18.28.15.04,0,.02-.08.09-.11.19-.07.42.03.23-.27.07-.08.19.19.19.24l.13-.07-.03-.12.28.04.14-.32-.09-.03.28-.07-.14-.19.27-.21-.18-.35-.1.03-.09.11-.05-.33-.09.02c-.36-.35-.79-.55-1.19-.87-.12-.1-.18-.08-.25-.19h-.16c.02-.17-.11-.39-.28-.28v-.13c-.28-.03-.19-.12-.3-.25-.1-.12-.34-.21-.41-.3-.04-.06-.05-.13-.09-.19-.11-.16-.18-.13-.23-.38-.06-.27-.13-.82-.12-1.08,0-.12.06-.22.06-.34.01-.14-.02-.3-.02-.45,0-.3-.01-.59,0-.89,0-.58.04-1.16.1-1.74.1-.98.4-1.95.48-2.92.07-.9.02-1.83.07-2.73,0-.07.04-.1.09-.14l-.08-.03s.02-.52.18-.47l-.24-.21c.05-.19.29-.47.28-.12l-.18.15h.23s.09-.26.09-.26l-.23-.16c0-.07.09-.06.15-.11.09-.11-.04-.26,0-.41l-.24.05c.09-.3,0-.76-.4-.66l-.06-.1h-.16c-.02-.18,0-.25.17-.33-.04-.26.11-.43.05-.73,0-.04-.07-.08-.07-.1,0-.03.19-.12.09-.26l.14-.02c.09-.05.03-.37,0-.46-.02-.05-.09-.03-.08-.06.01-.17-.06-.25.13-.21l-.09-.05c.06-.13.2-.48,0-.47v-.09s.11-.06.11-.06c.02-.08-.02-.31.01-.37.08-.15.18-.14.06-.4.24-.08.06-.33.06-.38,0-.03.08-.07.08-.14,0-.12-.1-.3,0-.47l-.1-.12.09.02c-.13-.22.16-.32.18-.43.02-.06-.04-.12-.04-.18,0-.06.04-.12.04-.19.01-.17-.07-.16.13-.34l-.07-.46c0-.15.23-.2.32-.27,0,0-.05-.09-.04-.16,0-.11.07-.27.1-.38l-.09-.05.04-.23.17-.13-.03-.21.1-.03-.09-.14.26-.09-.03-.21.1-.06v-.37s-.14-.17-.14-.17c.38.19.28-.24.29-.5l.08-.04-.04-.36.14.14.05-.37h.14s-.14-.12-.14-.12c.06-.07.19-.16.21-.25.01-.05-.03-.11-.02-.16,0-.07.04-.13.05-.2.02-.34-.23-.86-.57-.97l.04-.16c-.05-.11-.21,0-.28-.05-.08-.05-.08-.15.05-.12l-.07-.09-.16.09.05-.14h-.14c.06-.07,0-.15.01-.2.03-.12.17-.13-.01-.31h.08s0-.14.02-.2c.17-.6-.03-1.14-.06-1.75l-.1-.06c.11-.16-.01-.2-.03-.29-.01-.05.04-.09,0-.19-.05-.12-.1-.21-.15-.29ZM56.85,43.62l-.24-.33c.13-.02.22.03.31.11l.11.17-.18.05ZM43.14,52.65c-.1,0-.09.11-.14-.05-.04.08-.19.05-.21.07-.03.02-.03.08-.06.1-.06.05-.36.15-.41.11l-.05-.09-.05.09v-.09s-.09.03-.09.03v-.07s-.24.04-.24.04l.05-.14h-.14s.04-.09.04-.09l-.07-.02v-.18s-.2.05-.2.05v-.14l.14-.02-.24-.19.14.02c.01-.13,0-.23-.14-.24v-.05h.09l-.09-.21.09.02c.03-.09-.08-.15-.08-.21,0-.04.09-.09.03-.16h.14s-.05-.1-.05-.1h.23s0-.14,0-.14l.21.04.1-.14c.18.06.3.04.46-.04l.08.14c.17-.07.28.03.42,0v.24c.06.03.06-.2.14-.09.03.04.04.18,0,.23l.35.19-.03.14.14-.05v.11s.19.04.06.13l-.11.05.37.15.05.34c-.02.12-.08.11-.13.16-.03.03-.05.09-.06.1-.01.01-.26.06-.29.06-.13-.01-.19-.11-.47-.09ZM44.38,53.69v.12c-.31.17-.51.14-.85.07l.09-.09-.09-.05.09-.02c-.08-.1.07-.32.15-.38.09-.06.22-.03.23-.04.01-.02,0-.07.04-.08.04,0,.17-.01.2.01l.04.08.13-.04c.17.1.05.28.12.42h-.14ZM48.16,53.54h-.24c.09.26-.38.2-.54.27l-.08-.22-.08-.03c.1-.16.34-.08.24-.31.09.03.17-.08.22-.09.06-.01.24.06.34.05v.09s.05,0,.05,0l.09-.09c-.07.12-.07.21,0,.33ZM49.14,50.62c-.36.78-.76,1-1.29,1.6-.04.04-.07.13-.08.13-.02.02-.48.05-.51,0v-.25s-.14-.03-.14-.03c.07-.14-.04-.18-.05-.31,0-.02.25-.05,0-.14.11-.07.05-.18.07-.26.09-.29.25-.42.38-.66.03-.06.1-.34.13-.37.02-.02.09,0,.12-.02.1-.06.29-.51.39-.58.06-.04.15-.05.21-.1l.44.09v.13c.15.04.05-.09.15-.09l.02.15h.12s.15.54.15.54c-.14.04-.07.1-.11.18ZM51.65,27.58c.1,0,.16.36.14.38l-.12.05-.12-.16.12-.07-.03-.19ZM47.26,21.34c.02.12-.02.08-.1.11-.16.04-.21.02-.37-.01.08-.17.33-.07.47-.09ZM33.39,65.3c.12-.15.21-.14.23-.36l-.14-.16.23.05-.03.35.13.16-.42-.05ZM49.74,66.52c-.02.17.08.33-.12.45v.05s.09.02.09.02l-.1.07.05.16h-.09c.03-.09-.08-.09-.09-.12-.02-.07.08-.22.08-.28,0-.12-.07-.35-.09-.47.15-.02.12-.28.22-.31.09-.02.18.06.21.14-.1-.03-.15.2-.16.28ZM59.18,38.05c-.11-.04,0-.27.05-.28l.16.16-.21.12ZM59.54,42.54l-.05-.28h.13s.03.09.03.09l.12-.09.04.12-.27.16ZM58.67,35.89s0,0,0,0c0,0,0,0,0,0h0ZM59.34,19.36s.06.05.09.08c-.06.12-.06.32.11.32l-.11.04c0,.2.19.29.08.45.17.09.03.18.06.25.05.17.21.34.24.58.03.22.12.16.14.2.01.02-.02.09,0,.13.04.15.1.15-.04.33l-.08-.02v.04c.13.02.08.16-.05.16-.02.25-.15.49-.21.73-.02.07.02.15,0,.2-.02.05-.22.2-.01.27v.04s-.11,0-.11,0c.02.15-.08.31-.11.46-.03.12-.03.31-.08.46-.03.09-.07.17-.11.25l.23.07h-.19s-.1.6-.1.6l-.2.94v.06s-.01,0-.02,0c.02,0-.56,1.89-.62,2.06-.17.53-.26,1.09-.33,1.64-.05.36-.3.99.18,1.2.09.04.21.04.26.13-.48-.03-1.07-.07-1.44.29-.28.27-.4.68-.66.96-.2.22-.47.38-.73.53-.73.43-1.47.85-2.2,1.28-.25.15-.5.29-.77.42-.29.13-.61.2-.88.36-.11.06-.16.17-.3.19-.04,0-.36-.08-.36-.07-.07.15-.29.12-.42.21-.06.05-.13.13-.2.09-.03-.02-.04-.05-.07-.06-.05-.01-.08.05-.12.07-.04.03-.1.02-.15,0-.09-.01-.15.05-.18.12-.02-.02-.08-.07-.1-.1.02.22-.32.48-.52.51-.38.06-.7-.13-1.07-.12-.25,0-.53,0-.79-.02-.1,0-.23-.07-.33-.07-.15,0-.08.16-.22.13l.05-.14c-.23.05-.51.05-.73-.05l-.05.1c-.13.02-.2-.02-.3-.1l-.03.1c-.17-.09-.45.02-.54-.15h.24s-.1-.17-.1-.17l.09-.03-.02-.14c.09-.12.2-.05.28-.06.13-.02.25-.07.39-.08l.03.08s.07-.03.11-.03c.03,0,.07.02.1.02.06,0,.15-.18.29-.21.23-.05.44.09.6.07.12-.01.74-.44.8-.55.02-.04.01-.13.06-.22.05-.09.13-.14.17-.21.12-.18.28-.41.14-.61-.06-.09-.4-.04-.52-.05-.55-.03-.41.01-.89.19-.34.12-.29.03-.52.02-.09,0-.22.07-.33.07-.33.02-1.01.03-1.3-.12-.11-.06-.26-.24-.33-.28-.07-.04-.18-.03-.27-.06-.15-.05-.28-.21-.42-.29-.57-.31-.7-.23-1.01-.87-.02-.04-.07-.04-.08-.05,0,0,0-.18-.01-.23l.62.3c.58.26,1.27.79,1.98.95.12.02.33-.02.45-.01.63.04,1.22.14,1.84.04l.06-.1c.26.11.42-.11.6-.2.16-.07.3-.06.41-.25l-.05-.09c.05-.05.15.05.18.02.02-.02.03-.16.15-.14l-.09-.12.14-.1.03-.86c.12-.11.14-.4.23-.48.05-.05.16-.05.19-.09.04-.06-.01-.12,0-.17,0-.04.07-.08.08-.14.02-.14-.07-.29-.14-.4.07.03.21-.18.23-.22.01-.04.06-.4.06-.47,0-.09-.03-.4-.14-.35v-.05c.07,0,.24-.13.26-.19.02-.04-.03-.11-.02-.16.02-.19.05-.43.05-.62,0-.11-.04-.2,0-.3l-.18-.08c-.02-.11.05-.28.04-.37,0-.08-.08-.12-.11-.18-.02-.05.01-.11,0-.12-.18-.18-.09-.16-.18-.31-.02-.04-.09-.04-.12-.08-.12-.17-.28-.5-.49-.52v-.14s-.08.04-.08.04l-.03-.08-.08.03c-.09-.23-.44-.24-.62-.35-.15-.09-.06-.08-.25-.13-.18-.05-.36-.12-.55-.15-.76-.13-1.47-.11-2.25-.11-.12,0-.23.05-.35,0l.07.14c-.1.03-.31-.18-.33-.18-.02,0-.06.07-.11.08-.09.02-.3.04-.41.07-.55.14-.88.28-1.3.63-.58.48-.99,1.26-1.22,1.99-.05.16-.12.35-.07.51l-.08.04c.01.13,0,.5-.1.57-.02.02-.11-.03-.14.05.17.09.21.17.14.35h-.13s-.03-.1-.03-.1c-.12,0-.13.11-.06.18.05.05.18.02.18.1l-.28.1c0,.07.04.24.02.3-.01.05-.08.09-.08.19,0,.13.18.22.01.22l.04.23.18.08-.19-.02v.19h.24s0-.11,0-.11l.14-.03-.09.12.09.04-.04.31h.14s-.09.1-.09.1c.17-.04.12.34.15.37.02.02.16,0,.21.1.01.03-.02.08,0,.11.03.09.14.43.17.47.04.05.12.07.17.12.19.2.31.6.45.85h.13c.03.09-.12.03-.09.08.03.05.12.08.13.15.03.11,0,.27.06.39l.14-.05c0,.06-.09.07-.07.14.05.21.38.45.36.71l.09-.05.05.23c.07-.01.21.03.29.06.05.02.02.08.06.09.16.04.4.07.56,0l.05.1h.21c.05.16,0,.3-.03.46-.02.12.05.18-.13.3l-.07-.14c-.11-.01-.17.12-.26.19l-.02-.14c-.09-.04-.17.08-.21.08-.04,0-.09-.06-.14-.06-.24-.02-.67.2-.95.08l-.02.19-.05-.14c-.11-.05-.26.08-.31.08-.04,0-.12-.12-.21-.08l.05.14c-.13.05-.08-.09-.12-.1-.11-.02-.15.03-.17.14h-.09s0-.14,0-.14c-.11-.01-.16.11-.27.14-.09.02-.16-.04-.22-.03-.07,0-.26.1-.36.11v.17c-.15-.14-.19-.03-.28-.02-.14.02-.25-.02-.4.07l-.05-.1c-.06-.01-.28.04-.35.08-.08.04-.09.16-.23.08l-.03.09c-.2-.21-.39-.16-.66-.19-.32-.04-.49-.13-.83-.02-.21.07-.22.45-.23.64-.06.01-.13-.04-.19-.02-.05.02-.33.21-.39.26-.12.09-.25.19-.38.28-.18.13-.29.48-.46.64l.33.12c0,.09-.09.03-.14.02-.06,0-.12-.04-.19-.02l.14.05-.14.21.19.14-.14.12.28-.09-.09.25.18.13c.04.05-.11.78-.14.91-.02.1-.07.28-.14.29l.05.3-.09-.05v.36c-.15.06-.15.25-.05.35h-.14c.05.19-.06.3-.1.45-.17.65-.32,1.13-.61,1.74-.05.11-.04-.06-.07.2,0,.05-.09.09-.03.16h-.19c.03.21-.11.21-.17.28-.03.04.03.13,0,.19-.06.11-.17.2-.21.36l.09.05c-.1.14-.18.4-.22.57-.1.44-.18.88-.27,1.29-.05.22-.19.45-.25.7-.02.08.05.15.04.22,0,.04-.07.02-.1.06-.03.04-.02.16-.04.23-.05.17-.2.23.04.33l-.19.02c.09.29-.38.48.05.68-.11.08-.11.18-.09.31h.14s-.09.1-.09.1c.07.02.2.05.25.09.11.08.2.24.34.26.06,0,.07.07.07.12v-.17l.09-.02c0,.13,0,.23.09.33-.06,0-.16,0-.19.07-.04.09.09.06.09.09.03.16-.1.11-.1.14.11.14.01.29.14.34l.04.27c.04.05.15.04.21.07.06.04-.02.15.17.06v.07s.1,0,.1,0l.05.11.09-.04v.19s.12,0,.12,0c.04.1.06.22.12.31.44.59.86,1.22,1.15,1.92.06.15.03.3.07.39.03.06.11.05.15.1.06.08.03.23.14.29-.04.03-.18.04-.09.12,0,0,.06-.04.09-.02.11.05.17.32.24.43l-.1.05c.08.57-.09,1.19.01,1.78.04.21.32.47.32.74l.05-.09.09.14.14-.09c.07.16.11.32.05.49.29.17.04.17.05.19,0,.02.04.05.04.1.02.18-.06.24.14.33l-.09.02v.12s.19.19.19.19h-.14c0,.13.1.24.13.34.02.06,0,.15.02.19,0,.01.05,0,.06.03.03.03.04.08.06.1.01,0,.25.07.27.07.11-.02.14-.13.25-.13-.14-.18-.03-.17-.01-.27.01-.06-.06-.19-.04-.27l-.1-.03.09-.12-.14-.1c.03-.28-.02-.55-.13-.8l.23-.35c.07,0,.07.07.09.12.1.3.16.69.29.98.02.04.08.03.09.07.03.08.03.21.05.3.13.03.21-.06.32-.1l-.03-.08h.08c-.05-.18-.13-.29,0-.43l-.1-.03c.05-.23-.08-.42-.13-.62-.08-.34-.1-.73-.27-1.03.05-.14-.09-.38,0-.5.05-.08.6-.13.68-.24,0-.01.07-.31.06-.32-.14-.03-.28-.08-.42-.12-.04-.01-.09.01-.15,0-.34-.09-.53-.17-.7-.48-.04-.06-.01-.14-.03-.16-.07-.1-.31-.11-.31-.31l.1-.03v-.09c-.29.04-.23-.28-.29-.37-.23-.32-.36-.56-.52-.92-.15-.34-.24-.67-.37-1.02l-.09.02v-.11s-.09-.01-.09-.01l.04-.06-.14.02.14-.19s-.07,0-.1-.03c-.1-.14-.14-.43-.23-.55-.02-.03-.06-.03-.1-.03l.09-.19-.09.09c.07-.33.04-.66.03-.99h-.12s0-.49,0-.49l-.05-.05-.09.02v-.14c-.14.07-.2-.04-.33-.07-.18-.03-.43.05-.62.07.15-.15.17-.33.36-.42l-.02-.35c.03-.11.18-.11.19-.15,0-.07-.06-.15-.05-.23,0-.08.08-.14.09-.2.02-.09-.04-.45-.1-.52-.02-.03-.11-.03-.13-.09-.03-.08.12-.27,0-.4h.14c.04-.13-.1-.3-.08-.39.01-.1.23-.33.26-.44.02-.07-.04-.25.02-.33.02-.03.12-.03.15-.1.02-.04.03-.33-.02-.38l.18-.05c.04-.08-.03-.19-.02-.26,0-.02.15-.35.18-.46.12-.4.33-.86.35-1.28,0-.19-.12-.22.14-.36l-.02-.14.08-.03-.04-.17c.06.03.1.04.14-.02-.13-.15.05-.24.05-.4l.09.09.09-.16-.14-.07.19-.02.04-.05-.04-.19c.21-.1.21-.38.26-.57.02-.1.12-.14.02-.28l.1-.05v-.21s.09.05.09.05c-.08-.18.04-.21.11-.33,0-.01.07-.12.07-.13.03-.05.03-.14.05-.2l.19.05-.14-.14.14-.19c.14.04.08.2.1.3.05.26.18,1.28.28,1.42.03.04.13.09.13.14,0,.04-.05.11-.06.16-.02.1.12.17-.12.15l.14.05c.07.12-.14.41.05.38l-.14.05.09.07v.11s-.08.03-.08.03v.11s.18.08.18.08c-.08.07,0,.24,0,.25,0,0-.12.02-.13.12l.14.07c.03.1-.08.12-.12.19-.02.04-.06.39.06.34.04.05-.05.21-.13.18v.09l.14-.02-.19.07.18.16c-.08.23-.21.36,0,.54l-.14-.02v.14s.18.09.18.09l.02.24-.1.03v.07c.12.06.14.2.28.17l-.05.16.1.07-.14.14h.28c.03.16-.14.03-.09.19h.09s.01.23.01.23h.13s-.09.19-.09.19l.09.03-.05.16.28.17-.19-.02.05.19c.21-.11.24.1.38.21l-.14-.02v.09c.13,0,.06.14.24.07l.14.31c.17-.06.3.03.47.05l-.14.14c.12.05.27-.02.38.03.12.05.34.26.46.29.08.02.16-.03.24,0l.03-.09.05.1c.2-.11.28.03.43.04.2.02,1.1-.1,1.26-.19.11-.06,0-.07.17-.11.3-.07.9-.37,1.08-.62.16-.23.45-.45.59-.73.06-.11.03-.29.14-.38l.21.14-.14.07.23.17-.05.18.24.05s-.1.09-.12.09c-.05.01.01-.12-.07-.09v.14s.33.05.33.05l-.11.05-.03.14.14-.05v.14c.08.02.02-.11.07-.09,0,0,.15.1.15.11.05.06,0,.2.15.15l-.09.17s.33-.1.33.02c0,.07-.16.07-.21.07-.51.04-.56-.09-1.06.16-.05.03-.18,0-.25.03-.04.01-.28.2-.36.16l-.05.05.1.05c.03.15-.06.1-.1.15-.04.07-.05.17-.14.23v.06s.1.03.1.03c-.09.19.11.27-.05.44.12.06.09-.1.12-.09.16.04.18.15.35.18.09.01.48,0,.44-.13h.05s0,.09,0,.09h.09c-.02-.18.2-.08.23-.1.01,0,0-.07.04-.09.08-.06.28-.06.35-.12.05-.04.03-.12.06-.15.02-.03.12-.04.16-.11.04-.07-.05-.02.07-.17.23-.3-.05-.27-.05-.32l.05-.26c.14-.06.25.07.31.08.08.01.17-.08.29.03.13.12.14.02.15.03,0,.01,0,.06.03.09.12.09.28,0,.3.02l.07.12c.28-.13.49,0,.79-.06.16-.04.12-.12.13-.12,0,0,.1.04.16.05.19,0,.86-.39,1.03-.53.18-.14.36-.26.55-.39.38-.26.49-.35.75-.72.24-.35.66-.99.78-1.38.04-.13.11-.63.12-.78,0-.1,0-.13-.1-.12.19-.21.04-.49.1-.73l-.1-.03c.12-.1.14-.48-.05-.38v-.02c0-.23.19-.79.13-.98-.01-.04-.06-.07-.09-.1l.1-.05v-1.06s-.14.02-.14.02c0-.22.19-.74.13-.93-.01-.04-.06-.07-.09-.1l.1-.05-.03-.7c.03-.23.22-.31.27-.38.03-.05,0-.11.02-.15.01-.03-.37-.19-.41-.21.26.12.28-.07.35-.3.04-.13.09-.22.16-.34.13-.25.07-.45.26-.69.17-.21.37-.39.6-.54.44-.29.93-.49,1.37-.77.25-.16.49-.35.73-.52.4-.29.83-.56,1.29-.75.26-.11.53-.19.75-.37.29-.23.47-.56.79-.76s.69-.25,1.01-.45c.22-.14.37-.36.37-.62,0-.17-.05-.33-.1-.49,0-.03-.02-.06,0-.09.01-.03.04-.04.07-.06.28-.15.44-.21.54-.52.1-.29.13-.59.2-.88.05-.22.11-.44.1-.67,0-.12.02-.24.07-.34.09-.2.19-.33.22-.55.04-.24.09-.48.14-.72.1-.53.2-1.05.3-1.58.2-1.05.3-1.03.35-2.09.01-.28.11-.89.03-1.1-.02-.05-.09-.06-.07-.08.08-.13.25-.19.12-.41l.11-.02c.04-.09-.03-.19-.01-.25.05-.17.41-.3.27-.61.11-.01.1,0,.14-.11.18-.63.08-1.27.21-1.88.03-.13.09-.42.13-.53.06-.18.27-.36.12-.55l.11-.02c0-.36.22-.58.06-.94-.02-.04-.08-.07-.08-.08-.02-.06.08-.19.05-.28l-.15-.09.07-.08c-.2.05-.13-.12-.2-.2-.03-.04-.1-.04-.14-.06l-.07.07-.1-.07c-.05.14-.15.07-.22.09-.12.04-.16.21-.2.29,0,.01-.16.03-.21.19l.09.05-.03.09h-.1s.09,0,.07.11c-.05.2-.16.32-.23.48-.09.23-.16.52-.26.76-.08.2-.22.41-.28.61-.01.04.11.02.06.09-.23-.01-.06-.16-.11-.3-.01-.04-.07-.05-.07-.06-.02-.06.06-.15.04-.23,0-.01-.13-.18-.14-.19-.04-.03-.02.12-.1.07l.04-.14-.41-.12.11.13c-.23-.1-.39-.06-.5.17l.08.07-.15.04c.02.1-.11.53-.1.56ZM46.9,29.57s.14-.09.16-.12c.02-.03,0-.09.02-.12.1-.14.56-.08.68,0,.02.01.14.17.16.19.03.05,0,.1.01.11.17.22.05.09.08.31,0,.04.07.02.1.06.09.12.09.27.04.4-.1.24-.14.14-.29.22-.03.02-.03.07-.04.08-.07.04-.25.15-.32.17-.13.06-.37-.02-.52-.02l.04-.09c-.21-.01-.06-.27-.23-.24v-.05h.09v-.09l-.1-.03c.05-.23.08-.45.12-.68.01-.05-.02-.12-.02-.13ZM45.44,30.92s.08-.03.11-.06c.06-.07.09-.18.16-.25.12-.13.23-.07.38-.12.04.09,0,.28,0,.34.01.05.07.08.08.11.01.06-.14.14-.04.25-.12.05-.58.05-.65-.06,0-.01-.04-.22-.03-.23ZM43.52,29.52c.05-.11.26-.12.16-.34h.14s-.04-.09-.04-.09l.28-.1-.05-.09.18.04c.03-.19.43-.15.59-.13.12.01.24.1.36.04.13.44.06.86-.09,1.29-.09.04-.11.14-.16.18-.19.16-.77.17-.99.05-.09-.05-.15-.29-.31-.24-.02-.08.11-.02.09-.07-.02-.06-.16-.12-.18-.2-.01-.05,0-.28.03-.33ZM44.04,45.51s-.08.02-.1.06c-.11.14-.15.24-.12.42-.16-.12-.23.09-.3.13-.09.05-.22.09-.31.14-.11.06-.15.17-.33.11l.05.09c-.14-.01-.25.09-.38,0l-.07.19-.02-.14h-.14s.02.1.02.1l-.14.09.02-.19s-.24.08-.31.08c-.06,0-.15-.15-.29-.03-.03-.16-.22-.09-.33-.11-.06-.02-.09-.1-.15-.11-.06-.02-.16,0-.2-.02-.02-.01-.21-.31-.23-.36-.07-.13-.14-.36-.2-.51-.05-.12.18.02.23-.06v.08c.2-.07.4.22.6.25.13.02.34-.04.47-.02.48.05.85.1,1.35-.05.14-.04.28-.04.24-.21.26.11.46-.16.71-.19.02.08-.05.12-.07.19,0,.03.02.08.01.09ZM41.34,43.58c.13.02.34-.04.47-.02.48.05.85.1,1.35-.05.14-.04.28-.05.24-.21.26.11.46-.16.71-.19-.07.24-.33.39-.28.66-.11-.06-.27.07-.29.19l-.13-.04c-.04.12-.37.32-.5.23-.07.17-.24.15-.41.14l-.02.14-.17-.14v.19h-.14l-.02-.19-.05.09c-.12,0-.23-.06-.33-.07-.03,0-.08.02-.13.01-.16-.03-.22-.07-.37-.11-.03,0-.29-.12-.32-.14-.1-.06-.09-.15-.14-.23-.02-.03-.07-.03-.08-.04-.06-.1-.07-.38-.15-.49l.17-.07.03.08c.18-.07.39.22.59.25ZM40.84,41.86l.33-.14c.31.04.58-.24.83-.24.06,0,.16.1.33.08.12,0,.2-.09.28-.1.13,0,.37.06.55.02.09-.02.2-.14.25-.14.04,0,.09.03.14.02.1-.01.21-.03.31-.04l-.05.33c-.11-.06-.27.07-.29.19l-.13-.04c-.04.12-.37.32-.5.23-.07.17-.24.14-.41.14l-.02.14-.17-.14v.19h-.14s-.02-.19-.02-.19l-.05.1c-.1,0-.23-.06-.3-.07-.21-.03-.36-.06-.53-.1-.1-.02-.35-.16-.42-.24ZM44.43,39.99l-.17-.09-.23.12-.19-.08-.16.14-.07-.14c-.1.16-.18.05-.29.05-.18,0-.33.1-.51.04l-.05.1c-.22-.05-.58-.08-.76.1l-.02-.09h-.19l.02.09-.19-.1-.14.19c-.06-.03.04-.16-.09-.14-.11.02-.12.11-.2.13-.05.01-.15-.03-.22-.02-.11.01-.28.1-.41.08l.05.14-.26-.05-.05.1c-.18-.12-.07-.18-.07-.31,0-.19-.05-.24.07-.44.08-.14.13-.04.22-.06.19-.04.47-.2.65-.25.24-.07.24.04.48-.15.14-.11.55.03.67.02.11,0,.26-.13.33-.12.06,0,.11.09.19.08.05,0,.1-.07.16-.08.06,0,.11.04.21.02.09-.02.18-.08.21-.17l.14.08c.19-.11.5.02.75.01.06,0,.11-.05.17-.05-.07.15.02.2.04.31.01.07-.06.52-.09.54ZM44.52,37.32c.03.15-.06.35-.09.5-.09.03-.13-.1-.21-.1-.08,0-.13.1-.19.14l-.07-.14c-.11-.01-.17.12-.26.19l-.02-.14c-.09-.04-.17.08-.21.08-.04,0-.09-.06-.14-.06-.24-.02-.67.2-.95.07l-.02.19-.05-.14c-.11-.05-.26.08-.31.08-.04,0-.12-.12-.21-.08l.05.14c-.13.05-.08-.09-.12-.1-.2-.03-.1.17-.26.14v-.14l-.27.14c-.2-.03-.46,0-.61.12l.03.12c-.18-.19-.29.09-.42-.07.08-.23-.02-.35.12-.59.08-.14.13-.04.22-.06.19-.03.47-.2.65-.25.24-.07.23.04.48-.15.14-.11.55.03.67.02.1,0,.23-.11.3-.12.08,0,.14.09.22.08.05,0,.1-.07.16-.08.06,0,.11.04.21.02.09-.02.18-.08.21-.17l.14.08c.19-.11.51.02.75.01.08,0,.14-.07.21-.09.03.08-.09.16-.08.21,0,.03.06.07.08.14ZM45.94,37.04l.66-.11.08.14c.06.02.21-.01.24-.06.03-.04-.02-.11.11-.08.09.28.15.05.17.05.18-.04.1.15.23.14l.33-.1.03.09.11-.04.04.09.67-.09.03.09.13-.04c.04.27.4.09.55.11.06,0,.11.14.19.16.12.03.27-.01.39.01.07.14,0,.36.19.38-.12.18.06.25.05.42-.29-.05-.57-.13-.86-.2-.46-.11-1.07-.14-1.55-.19-.14-.01-.23,0-.34,0-.1,0-.23-.07-.33-.07-.15,0-.08.16-.22.13l.05-.14c-.23.05-.51.05-.73-.05l-.03.08c-.34.12-.26-.54-.18-.72ZM50.27,44.89l-.06.03c-.07.21-.24.37-.38.52-.09.1-.1.23-.29.23v.13s-.14-.05-.14-.05l-.05.12-.17.02s.03.08.02.09c-.03.04-.51.26-.6.25.03.1-.43.26-.46.26-.04,0-.09-.06-.14-.06-.07,0-.16.05-.24.05-.29,0-.75-.29-.91-.53-.06-.09-.27-.47-.29-.56,0-.02.1-.05.12-.05.07,0,.13.09.2.11.03,0,.07-.01.11,0,.08.02.12.1.23.02v.14s.33-.04.33-.04l.08.14c.08.03.16-.04.24-.04.08,0,.15.04.23.05.19.01.42-.07.61-.11.33-.07.38-.15.61-.3.04-.03.12,0,.18-.04.15-.08.4-.34.53-.44.05-.04.24,0,.3-.15l-.04.22ZM47.05,41.32c.09.02.18,0,.22,0,.33.1.3,0,.53.04.13.02.06.09.33.1.1,0,.1.11.14-.05.14.11.35-.05.49.06.03.02.03.11.08.12.08,0,.26-.12.36.03-.15.08-.29.18-.44.27-.15.09-.3.21-.48.18l-.06.1c-.2-.1-.41,0-.6-.01-.38-.04-.54-.34-.83-.52l-.06-.27h.19s.1-.14.1-.14c-.03.09-.09.07.02.1ZM46.84,43.32c.05.02.1,0,.14,0,.08.02.12.1.23.02v.14s.33-.04.33-.04l.08.14c.08.03.16-.04.24-.04.08,0,.15.04.23.05.19,0,.42-.07.61-.11.33-.07.38-.15.61-.3.04-.03.12,0,.18-.04.15-.08.4-.34.53-.44.05-.03.2,0,.25-.1.04.06-.07.23-.1.28-.04.07-.13.2-.18.27-.02.02-.09.03-.09.1l-.08-.03c-.04.14-.14.23-.29.24v.18s-.15-.09-.15-.09c0,.19-.17.14-.18.15-.23.21-.62.49-.92.51l-.06.1c-.45-.08-.68.09-1.08-.24-.06-.05-.32-.27-.34-.29,0,0,.02-.06,0-.08-.03-.07-.21-.37-.21-.4.03-.15.2.03.24.05ZM50.33,40.46s-.35-.12-.41-.13c-.52-.14-1.05-.23-1.58-.27-.32-.02-.62-.06-.96-.08-.12,0-.31-.06-.42-.04-.06,0,0,.12-.07.1v-.14c-.1-.04-.2.08-.26.08-.04,0-.09-.06-.15-.07-.08-.01-.31.01-.39.04-.04-.23-.1-.45-.15-.68-.01-.04-.07-.06.01-.1.07-.04.52,0,.64-.11l.1.14c.06.02.21-.01.24-.06.03-.04-.02-.11.11-.08.09.28.15.05.17.05.18-.04.1.15.23.14l.33-.1.03.09.11-.04.04.08.67-.09.03.09.13-.04c.04.27.4.09.55.11.06,0,.11.14.19.16.17.05.36-.06.53.13.05.05.03.12.06.15.02.03.09.02.12.09.04.08,0,.19.02.23,0,.02.04-.02.07.11.02.09.08.1.01.24ZM59.93,25.38c.15.08-.05.45-.04.47.12.08.04.25-.06.34-.1-.03,0-.16,0-.21,0-.06-.03-.11-.01-.16.01-.05.07-.1.09-.17.02-.09,0-.18.03-.26ZM54.82,55.43l-.24-.1.09.19-.19.09c.12,0,.17.03.28,0,0-.05.07-.17.05-.19Z"/>
      <path class="st3" d="M42.68,62.61s0,.06,0,.09l.16-.09.14.13.05-.14c.05,0,.13.06.16.09.19.18.1.31.4.4.08.02.16-.07.17.16l.28.05-.09.05v.43c-.2-.09-.24.04-.04.12,0,.07-.09.14-.08.19,0,.07.11.24.07.37-.04.15-.21.05-.03.38.11.21.48.55.13.72.08.08.17.22.2.32.03.09-.02.13-.02.19,0,.04.07.02.1.06.1.2-.05.25-.04.31,0,.03.08.11.1.18.04.12.02.25.08.37l-.14.05c.09,0,.13-.05.14.07,0,.1.11.57.09.59-.03.02-.11-.03-.09.05l.14.03c.03.2.05.27-.14.37l.18.08c-.02.17.17.43.08.61-.03.06-.15.12-.15.21,0,.03.02.14.08.12l.09-.19c-.06.1.04.15.05.26s-.03.31-.05.43l.05.51c-.01.1-.1.16-.19.17l.04.13c-.18.02-.13.3-.13.45,0,.11.09.09-.06.14l.05.16c-.19.03-.07-.23-.24-.19l-.09.38-.14-.14-.14.26.09.05-.15.21-.14-.05.07-.19c-.12.1-.18.22-.17.38l-.19-.09c.02.17.1.26-.07.38l-.07-.19c-.11.08-.17.17-.33.14l.19.05c-.12.16-.31.06-.19.33-.1.02-.14-.07-.14-.14h-.05s-.03.1-.03.1h-.2s-.05.14-.05.14l.19.05c-.18.12-.34-.19-.38.09l.09.05-.24-.03c-.05.06-.1.27-.15.3-.05.04-.24.02-.31.07-.03.03-.06.15-.13.18-.11.05-.03-.11-.12-.09l-.05.24c-.21.04-.01-.19-.05-.24l-.33.19v-.14s-.26.05-.26.05l-.08-.19h-.14s.09.14.09.14c-.09.03-.24-.05-.3-.04s-.09.12-.17.09v-.26c-.26-.11.05-.22.05-.23-.11-.14-.24-.05-.38-.02-.01-.01.04-.26.06-.28.02-.02.09,0,.12-.02.02-.01.08-.14.11-.18l-.19-.05c0,.09-.02.21-.14.19v-.21s.09.02.09.02c.02-.12.08-.15.19-.14,0-.12-.22.03-.19-.12.03-.1.32-.3.28-.5l.14.05c0-.23.12-.16.25-.24.49-.3.9-.72,1.36-1.08.04-.03.05-.09.08-.12.11-.08.21-.04.33-.03l-.05-.11c.04-.11.16-.03.19-.05.04-.11.06-.13.18-.12v-.19s.19.09.19.09c.03-.12-.1-.11-.13-.15,0-.01-.02-.2-.06-.25v-.06c.23-.06.16-.24-.04-.15l.05-.54-.14.02c-.06-.16.2-.04.14-.16-.05-.12-.25-.22-.19-.4.03-.03.28.06.28-.05-.16.05-.3-.12-.33-.26-.03-.17.33.04.28-.17-.18.1-.2.03-.32-.06v-.27s.08-.03.08-.03c-.15-.15-.33-.26,0-.31l-.12-.09v-.09s-.07-.08-.07-.08l.23-.12v-.14c-.05,0-.1.04-.15.04-.27-.02-.13-.38-.08-.53l-.19-.15.09-.07.09.09-.14-.19.19-.05-.28-.05.09-.33-.14-.02.1-.21-.19-.07.09-.17-.18.04-.1-.16c.06-.05.12.01.09-.12h-.14c-.04-.14.16-.1.19-.24-.13.02-.13-.13-.14-.24l-.11.05-.12-.12c.11-.16.16-.4.09-.59h.24c.05-.09,0-.24.02-.31.04-.11.15-.16.09-.31l.12-.04c0,.09,0,.1.1.09v-.24c.14.06.26.02.41.02.05,0,.11.04.16.03Z"/>
      <path class="st3" d="M34.19,67c-.05.1.03.34-.07.37h-.15c-.02-.08-.06-.14-.15-.14,0-.12.21.03.24,0l-.05-.24h.19Z"/>
      <path class="st3" d="M59.87,45.7l-.31.09-.07-.24c.12-.01.13-.01.17.09l.12-.14.09.19Z"/>
      <path class="st3" d="M26.61,43.96c.18-.05.18.21.09.24-.18.05-.22-.2-.09-.24Z"/>
      <path class="st3" d="M45.62,49.37s.1.01.15.06c.1.1.1.42,0,.52-.05.05-.12.04-.16.07-.08.06-.12.15-.22.16-.16.02-.22-.03-.21-.19l-.09.09c-.04-.15-.16-.17-.01-.31l-.07-.09c.06-.09.14-.19.08-.3l.23-.06v-.13c.06.07.22.06.24.07.03.02.03.08.06.1Z"/>
      <path class="st3" d="M56.04,40.19s0,.05.02.07c.06.06.14.09.12.21l-.28.04-.09-.21c.04-.07.14-.16.22-.11Z"/>
      <path class="st3" d="M33.01,29.94c.04.07-.1.39-.12.38l-.12-.21.23-.17Z"/>
      <path class="st3" d="M53.31,31.92c-.16.06-.15.02-.23-.12l.16-.12.07.23Z"/>
      <path class="st0" d="M52.4,36.96c.01-.09.02-.18.01-.27.04,0,.08.01.12.02-.05-.1.08-.21.2-.21s.25.03.34-.04c.09-.06.11-.19.19-.25.04-.03.08-.04.12-.06.1-.05.17-.15.24-.23.33-.39.85-.55,1.34-.69"/>
    </g>
    <g>
      <path class="st2" d="M20.45,65.83s.01.1.03.12c.12.19.2.41.33.62.32.51-.17,3.65-.66,4.37-.22.33-.61.97-.38,1.36.05.03.07.04.08.06,0,.01,0,.03,0,.09.03.06.1.08.17.1l.11.21c.15.24.27.21.42.12.07-.04.13-.1.21-.14.07-.04.15,0,.21-.04l.04-.07.64-.39.06-.08c.15-.09.34-.11.58-.26.15-.09.27-.38.16-.56-.03-.06-.09-.09-.16-.11l-.26-.42c.03-.11.15-.34.25-.41.19-.12.54-.14.77-.13l.15.24.06.02c.03.06-.03.11,0,.17l.43.7s.06.01.08.05c.03.05.04.1.06.12.04.06.09.1.15.14,0,.07.12.29.25.51.13.22.28.43.32.5l.08.05v.09s.15.24.15.24c-.03.13-.16.35-.28.42-.11.07-.58.09-.71.02-.04-.06-.1-.21-.19-.36-.11-.18-.26-.34-.41-.27l-.07.09s-.12.03-.15.04c-.05.03-.07.09-.12.12h-.1s-.06.02-.08.03c-.1.06-.19.2-.19.2l-.05.1h-.11s-.24.15-.24.15c-.02.01-.14.18-.16.21-.08.02-.15.03-.22.07l-.02.07-.27.17c-.07.04-.23.04-.26.06l-.66.39h-.09c-.1.07-.15.21-.26.28-.07.04-.15.03-.22.07-.07.04-.11.13-.18.17-.11.07-.31.03-.41.1-.1.06-.14.18-.24.24-.08.05-.18.02-.26.06l-.05.08c-.07.01-.11.03-.15.06-.11.07-.15.17-.29.25-.05.03-.11.02-.17.06-.02.01-.06.08-.09.1-.06.03-.21-.01-.29.04,0,.01,0,.04-.01.06h-.09s-.09.11-.09.11c-.05.02-.11.03-.15.06-.13.08-.21.19-.28.33l.2.3.03.05c.15.24.18.47-.11.65-.08.05-.18.02-.26.06-.06.04-.09.1-.14.13-.13.08-.34-.01-.41-.13-.13-.21-.16-.34-.31-.58l-.06-.09c0-.08-.08-.23-.12-.29l-.08-.06-.07-.08-.11-.18-.02-.11c-.04-.06-.1-.09-.14-.15-.04-.07-.04-.15-.08-.2l-.08-.06-.15-.24v-.1s-.1-.06-.1-.06l-.36-.59c-.05-.08,0-.17-.05-.24-.05-.08-.12-.15-.21-.19l-.15-.24c.11-.26.01-.47-.11-.67l-.13-.22c-.14-.75.05-1.49.25-2.21l.24-.15.04-.21.09-.06c.11-.07.33-.2.34-.37l.24-.15s.11,0,.2-.06c.09-.06.19-.13.22-.15.33.02.63-.1.95-.06.41.05.75.36,1.17.37.18.09.49.44.71.31.19-.41.37-.84.47-1.28.19-.28.24-.62.32-.94.17-.18.32-.46.2-.72.03-.13-.01-.35.08-.46-.02-.49-.17-1.25.32-1.55.14-.08.34,0,.42.12ZM15.38,72.21c-.02.25-.1,1.54-.02,1.68l.07.04.21.34c.06,0,.1.03.13.08.04.07.07.16.08.19v.06s.24.41.24.41v.08s.14.23.14.23c.01.02.1.08.12.09.08-.05.17-.06.27-.05l.42-.26c.02-.06.04-.12.08-.15.01,0,.04,0,.07-.01l.39-.26s.02-.03.05-.05l.58-.37h.1c.07-.04.11-.08.15-.11.05-.03.11-.05.17-.09l.06-.1c.13-.08.28-.01.4-.09.07-.04.27-.35.28-.44l-.17-.27-.1-.05s-.02-.13-.03-.15c-.11-.18-.19-.12-.38-.44l-.04-.07s-.07-.05-.08-.08c0-.01,0-.03-.02-.08-.06-.09-.21-.19-.3-.26l-.26-.42c-.18,0-.28-.17-.45-.21-.47.1-.99-.1-1.43.17-.24.15-.32.4-.74.66Z"/>
      <path class="st2" d="M18.59,58.06l.1.4c.03.13-.02.25.01.38.04.03.07.11.08.17.02.08.03.16.01.22l.05.03.1.39v.11s.05.08.05.08l.13.51c.02.08.11.1.12.16,0,.03,0,.1,0,.14l.05.03.15.61c-.07.1-.3.3-.42.33-.12.03-.49.05-.56-.08l-.18-.81-.14-.06c-.22.06-.69.51-.9.66l-.27.07c-.08.02-.25.28-.33.35-.21.16-.44.28-.61.49.03.1.01.22.04.32.03.1.07.2.15.27l.08.31c.04.16-.02.24.02.4.04.16.17.25.21.4,0,.03.02.15.02.18.03.06.04.11.06.18.02.08.03.16,0,.25l.08.3c.09.35,2.17.66,2.71.53l.04-.08-.14-.56c-.06-.22.03-.27.17-.43.1-.03.37-.08.49-.11.01,0,.03-.04.06-.04.12-.03.24.23.26.32v.25s.07.3.07.3c.07.04.09.1.12.19.03.1.03.23.06.33-.01,0-.03.04-.03.05.02.07.04.1.05.14.01.05,0,.06-.02.16l.13.51s.07.09.11.12l.18.73c-.04.07-.11.17-.19.19-.1.03-.19-.09-.28-.07-.08.02-.11.12-.19.14-.1.03-.3-.04-.39-.08-.08-.33-.03-.3-.04-.32l-.08-.33c-.75-.38-2.35-.66-3.13-.46-.73-.47-1.73-.04-2.47-.49l-.26.07c-.74-.19-1.5-.29-2.24-.44l-.26.07-.19-.09-.3.08c-.12-.04-.24-.08-.35-.13-.05-.07-.07-.18-.1-.28-.05-.21-.08-.42-.05-.49l-.07-.27c.09-.08,2.55-1.86,2.57-1.88l.3-.08c.1-.03.24-.27.28-.36.29-.17,1.06-.81,1.29-.86h.11c.09,0,.46-.42.57-.52.47-.12.35-.25.49-.3h.11c.18-.03,1.52-1.14,1.65-1.34l-.07-.13v-.11c-.02-.13-.08-.28-.22-.37.07-.13.09-.18.15-.19.04,0,.09.02.17,0,.13-.03.2-.19.33-.22.13-.03.37.06.51.09ZM13.2,64.02c-.17.1-.45.15-.38.41.08.3,2.35.59,2.71.53.04-.12.04-.16.04-.19s-.03-.02-.06-.12c-.02-.07.04-.13.03-.21-.04-.03-.08-.09-.1-.17-.01-.05-.02-.12.01-.17-.01-.05-.08-.27-.11-.29l-.08-.34c-.04-.17-.09-.35-.07-.43-.03-.07-.13-.26-.22-.25-.57.42-1.12.9-1.77,1.23Z"/>
      <path class="st2" d="M18.94,49.29s-.04.09-.04.12c0,.23-.04.46-.04.7,0,.6-2.04,3.03-2.83,3.39-.36.16-1.03.51-1.03.97.03.05.04.07.04.09,0,.01-.01.03-.04.08,0,.07.04.12.09.17v.24c-.01.28.11.32.28.32.08,0,.16-.01.26-.01.08,0,.12.08.2.08l.07-.04h.75s.09-.04.09-.04c.17,0,.35.08.63.08.17,0,.43-.19.43-.39,0-.07-.03-.12-.08-.17v-.5c.08-.08.31-.22.43-.22.23,0,.54.16.73.29v.28s.04.05.04.05c0,.07-.08.08-.08.15v.82s.04.04.04.08c0,.05-.01.11-.01.13,0,.07.03.13.05.2-.04.05-.05.31-.05.56,0,.25.02.51.02.59l.04.08-.04.08v.28c-.09.09-.32.22-.45.22-.13,0-.54-.23-.62-.35,0-.07.03-.23.03-.4,0-.21-.04-.43-.22-.44l-.11.04s-.12-.04-.15-.04c-.05,0-.11.04-.16.04l-.09-.04s-.05-.03-.08-.03c-.12,0-.27.07-.27.07l-.09.05-.09-.05h-.28s-.21.08-.24.1c-.08-.03-.15-.05-.23-.05l-.05.05h-.32c-.08,0-.22-.08-.26-.08h-.77s-.08-.05-.08-.05c-.12,0-.23.09-.36.1-.08,0-.15-.05-.23-.05-.08,0-.16.05-.24.05-.13,0-.28-.13-.4-.13s-.21.08-.34.08c-.09,0-.16-.08-.26-.08l-.08.04c-.07-.03-.11-.03-.16-.03-.13,0-.21.07-.38.07-.05,0-.11-.04-.17-.04-.03,0-.09.04-.13.04-.07,0-.17-.12-.27-.12,0,.01-.01.04-.04.04l-.08-.04-.13.04c-.05-.01-.11-.03-.16-.03-.15,0-.28.05-.42.14v.36s.01.05.01.05c0,.28-.09.5-.43.5-.09,0-.16-.08-.26-.08-.07,0-.13.04-.19.04-.15,0-.28-.19-.28-.32,0-.24.04-.38.04-.66v-.11c.04-.07.05-.24.05-.31l-.04-.09v-.11s-.01-.21-.01-.21l.04-.11c0-.07-.04-.13-.04-.2,0-.08.04-.15.04-.21l-.04-.09v-.28s.04-.09.04-.09l-.04-.09v-.7c0-.09.08-.15.08-.23,0-.09-.03-.19-.08-.27v-.28c.23-.16.25-.39.25-.63v-.26c.27-.71.81-1.25,1.36-1.76h.28s.15-.16.15-.16h.11c.13,0,.39,0,.48-.14h.28s.09.05.2.05c.11,0,.23-.01.27-.01.27.19.59.24.85.44.32.25.46.7.81.92.11.17.19.63.45.63.38-.26.75-.53,1.07-.85.31-.14.52-.4.76-.63.24-.07.51-.23.55-.51.09-.09.17-.31.31-.35.24-.43.51-1.16,1.08-1.16.16,0,.3.17.3.32ZM11.3,52.11c-.15.2-.88,1.27-.89,1.43l.04.07v.4c.06.03.07.08.07.13,0,.08-.03.17-.03.2l-.04.04v.48s-.04.07-.04.07v.27s.04.12.06.13c.09,0,.17.04.26.09h.5c.05-.04.09-.08.15-.08.01,0,.04.01.07.03l.47-.02s.03-.01.07-.01l.68-.02.08.05c.08,0,.13-.01.19-.01.05,0,.12.01.19.01l.11-.05c.15,0,.24.13.39.13.08,0,.42-.16.47-.23v-.32s-.06-.09-.06-.09c.01-.03.05-.12.05-.15,0-.21-.09-.2-.1-.58v-.08c-.01-.05-.03-.08-.03-.11,0-.01.01-.03.03-.08,0-.11-.08-.27-.12-.38v-.5c-.15-.09-.15-.29-.27-.42-.46-.16-.79-.6-1.3-.6-.28,0-.48.18-.98.18Z"/>
      <path class="st2" d="M17.19,40.63h.56s.09.04.09.04c.11,0,.23-.01.31-.08h.36c.11,0,.35.06.35.19l-.04.11.04.08-.04.07v.55s.04.03.04.03c-.07.12-.09.24-.1.38v.16c.05.01.09.07.09.12-.01.09-.05.25-.05.35l.05.11s-.04.11-.04.17c0,.12.08.23.08.38-.01.3-.08.46-.08.71v.35c0,.07.04.12.04.19,0,.21-.12.38-.12.71v.09s.03.03.04.04v.25s-.04.03-.04.04v.11c0,.17.04.34.04.5,0,.11-.08.21-.1.32l.08.12-.08.12v.07s.09.12.09.12v.13s.04.22.04.22v.27s.04.08.04.08c0,.07-.04.12-.04.19,0,.05.04.11.04.16l-.04.11.04.07v.39s-.05-.05-.05-.05c-.03.03-.32.07-.39.09l-.12-.09c-.09,0-.21-.03-.31-.03-.07,0-.13.01-.19.03v-.4c0-.16.12-.28.12-.44,0-.09-.04-.12-.09-.12-.07,0-.16.04-.22.04l-.08-.04c-.24,0-.44-.1-.52-.1-.09,0-.16.09-.26.09l-.07-.05h-.36s-.12.05-.12.05c-.05-.01-.11-.04-.17-.05l-.07.05h-.46s-.07.04-.07.04l-.07-.04h-.28s-.08,0-.08,0v.04c-.05-.05-.13-.09-.23-.1-.08,0-.16.04-.23.09-.04,0-.12.01-.2.01-.07,0-.13-.01-.13-.05h-.4c-.11,0-.17.08-.27.08-.13,0-.28-.04-.42-.04-.01-.04-.17-.05-.28-.05h-.36s-.12.07-.12.07c-.04-.01-.08-.01-.12-.01-.04,0-.09,0-.13.03-.08-.03-.07,0-.12-.07h-.68s-.08.04-.08.04c-.13,0-.25-.09-.38-.1-.12,0-.32.19-.32.31l.04.08v.59s-.04.03-.04.03c-.01.08-.09.12-.16.12l-.05.03h-.28c-.09,0-.17-.03-.25-.07l-.11.05c-.12,0-.11-.11-.16-.12-.03-.05-.04-.07-.04-.09,0-.03.01-.07.01-.16-.01-.05-.03-.11-.05-.15v-.35s.04-.07.04-.07v-.4s.08-.11.08-.11v-.39c0-.11-.08-.2-.08-.3,0-.09.08-.15.08-.23-.01-.03-.04-.09-.04-.15v-.2s-.05-.11-.05-.11l.04-.09c-.01-.07-.03-.11-.03-.13,0-.07.04-.07.04-.19l-.04-.07v-.43c-.05-.03-.09-.08-.09-.13,0-.05.07-.08.09-.12.01-.04.01-.07.01-.11,0-.07-.01-.15-.01-.21l.04-.08-.04-.07v-.32s.04-.09.04-.09c0-.11-.09-.19-.09-.3l.05-.11s-.01-.07-.01-.11c0-.05.01-.11.05-.15v-.17s.04-.08.04-.17c0-.15-.12-.28-.12-.44l.04-.09c0-.24.04-.48.04-.71l-.04-.05c.01-.15.01-.2.01-.26s-.01-.09-.05-.22c.05-.12.05-.28.18-.38h.27s.03.04.04.04c.07,0,.24.01.4.01.16,0,.32-.01.36-.05.05.04.2.05.34.05.09,0,.19,0,.23-.01l.09.04.09-.04h.32c.05.05.09.11.09.18,0,.4-1.36.91-1.36,1.19,0,.03.04.11.04.15,0,.12.01.31.01.46,0,.07,0,.13-.01.17,0,.03-.04.03-.04.04v.23c0,.07,0,.13-.01.2l.07.12-.07.11s.01.04.01.07c0,.07-.04.15-.04.21,0,.05.03.13.05.19l-.05.12.04.09-.04.09s-.03.05-.03.08c0,.07.05.13.09.15l-.07.12c0,.08.05.16.08.26.01.03.01.04.01.08,0,.12-.05.32-.06.43v.34c0,.23.04.43.36.43h.55s.07-.05.07-.05l.05.04h.66s.09-.02.11-.04c.08.04.17.04.25.04h.19c.08,0,.16.01.24.04.17,0,.5-.13.5-.33,0-.16-.13-.27-.13-.43l.12-.36c-.08,0-.12-.07-.12-.13l.04-.09v-.46c.02-.09-.01-.21-.04-.34v-.44c.07-.07.11-.17.22-.19-.01-.34-.11-.64-.21-.97,0-.01-.01-.03-.01-.04h-.28s-.08-.07-.13-.08c-.07,0-.13.04-.2.04-.08,0-.15-.07-.21-.09v-.19c0-.09.08-.17.08-.27l-.04-.09v-.28s.14-.13.14-.13h.27c.11,0,.21,0,.24-.01l.11.05h.42s.03-.04.04-.04h.35s.08.04.08.04l.12-.04.09.04.08-.04c.07,0,.12.04.19.04.12,0,.26,0,.35-.08,0,0,.43.01.43.03.05.11.11.2.2.27v.28s.04.08.04.08c0,.15-.12.27-.26.4h-.5s-.07-.04-.07-.04c-.26,0-.36.32-.36.52l.04.07v.38s-.04.09-.04.09l.04.15-.04.08.04.09-.04.07c0,.24-.04.48-.06.71l.05.16s.03.09.03.13c0,.12-.04.23-.08.24v.54s.05.09.05.09l-.05.09v.3s.15.15.15.15h1.5s.09-.03.09-.03c.07,0,.12.04.17.04l.09-.04.05.04c.07,0,.15-.01.23-.01.07,0,.15.01.2.05h.77c.09-.17.23-.33.23-.55l-.04-.04v-.38s-.08-.09-.08-.09v-.38c0-.11.08-.19.08-.31l-.04-.04v-.42s-.04-.09-.04-.09l.04-.09v-.48c0-.07-.04-.11-.08-.15v-.3c.07-.03.1-.11.1-.17v-.19s-.05-.07-.05-.07l.04-.11c0-.2-.08-.39-.13-.59-.42-.19-.63-.66-1.13-.66h-.08c-.11-.05-.15-.18-.15-.28,0-.09.09-.15.13-.23l.09.04h.36c.03-.05.09-.08.13-.09l.11.05Z"/>
      <path class="st2" d="M21.41,26.81l.05-.02c.15.12.48.83.6,1.05.01.26,0,1.44-.09,1.62-.02.04-.08.07-.09.1-.04.09,0,.17.01.26l-.19.4-.08.07c-.05.1.03.12-.01.22l-.1.13c-.39.83-.33.68-.38.72-.02,0-.03.03-.04.05-.03.07-.04.19-.08.29l-.05.1c-.09.19-.23.37-.32.56-.05.1-.07.16-.07.27l-.08.07-.15.33-.06.03c-.03.07-.04.15-.02.23l-.31.67s-.05,0-.08.07c-.06.13-.08.27-.14.39-.04.09-.11.14-.15.23h-.34s-.49-.24-.49-.24c-.03-.12-.07-.36-.01-.48.07-.15.19-.27.28-.42-.08-.11-.22-.2-.35-.27-.08-.04-.19-.04-.28-.04-.11-.05-.16-.16-.27-.22l-.79-.37-.08-.08c-.07-.03-.15-.03-.21-.05l-.09-.09-1.02-.48h-.13c-.12-.07-.2-.2-.31-.27l-.07.03-.32-.15s-.05-.02-.03-.06c-.21-.1-.45-.12-.62-.2-.11-.05-.17-.17-.29-.23h-.09c-.1-.04-.08-.18-.17-.23s-.28.02-.36-.02c-.06-.03-.09-.09-.14-.11l-.34-.16h-.1c-.07-.08-.13-.21-.23-.26-.15-.07-.31-.03-.39.13-.02.05-.03.1-.04.15-.04.01-.08.08-.12.17l-.07.16c-.14.05-.36.11-.5.06l-.03-.07-.29-.14-.03-.35.61-1.33c.03-.07.11-.11.15-.2l.22-.47v-.07s.06-.16.06-.16c.13-.27.29-.52.41-.79v-.07s.08-.1.11-.17c.01-.05,0-.11-.02-.16.02-.08.05-.14.08-.21.06-.13.14-.26.2-.4l.08-.08.11-.24v-.09c.07-.06.07-.07.08-.08.23-.49.63-.81,1.09-1.03.46-.22.98-.31,1.46-.31.06.04.1.06.15.09.02.01.13.01.16.01l.24.11.08.14.06-.03.29.14c.26.33.5.65.79.95.04.36.03.73.17,1.06.53-.48,1.19-.92,1.92-.88l.17.08c.06.03.13.04.21.04.04.05.08.08.13.1.05.02.1,0,.16.03.07.03.11.11.17.14.17.08.39.03.56.11.1.05.12.15.22.19ZM15.89,26.11c-.11.04-.2.01-.3-.03-.07-.03-.13-.07-.2-.11-.13,0-.26.05-.38.03-.2.11-.95.8-1.04.98-.02.05,0,.11-.04.17-.04.09-.19.28-.28.31l-.15.33s0,.1-.04.18l-.07.15s-.11.1-.17.23c-.07.15-.14.32-.16.37l-.08.05c-.05.1,0,.21.1.26.09.04.1,0,.14.02.02.01.04.04.08.08.33.15.33.14.33.14.02-.05.09-.03.16,0,.05.02.15.09.18.1.01-.02.04-.01.07,0l.09.04c.11.05.2.11.31.16.04-.01.07-.01.09,0,.04.02.05.05.06.09l.53.23v.1s.48.22.48.22c.1-.06.31-.25.36-.36.03-.06-.05-.12-.02-.19l.29-.61-.02-.05c.05-.1.16-.12.2-.22.09-.18,0-.39.08-.57.03-.07.12-.08.15-.14v-.11s.03-.05.03-.05c.26-.56.17-.87-.14-1.4-.07-.02-.13-.04-.18-.07-.07-.03-.14-.08-.14-.17l-.33-.15ZM20.01,27.8l-.44-.21c-.39.08-.77.1-1.15.22-.11.21-.34.34-.54.46-.02.05-.03.1-.06.16,0,.01-.09.09-.11.1l-.11.27c-.06.13-.18.26-.25.4l.02.05-.13.28c-.05.1-.18.08-.23.17s0,.21-.04.31c-.03.07-.12.12-.16.21-.03.07-.07.16-.1.25.05.11.11.24.21.34l.05-.02.02.05.43.2h.07s.49.21.49.21l.03.06.57.27.04.07h.08s.45.2.45.2l.03.06c.08.04.46,0,.57-.01l.22-.47-.02-.05.15-.32c.05-.11.16-.16.23-.29.02-.07,0-.1.03-.16.07-.15.17-.26.24-.41.11-.23.2-.47.25-.73.01-.16.02-.29.06-.43.1-.22-.59-1.12-.79-1.23h-.1Z"/>
      <path class="st2" d="M27.16,18.16l.1.02c.09.1.1.34.21.45l.09.03c.11.11.18.5.23.72.08.32.17.63.19.96.01.41.03,1.18-.08,1.55-.13.42-.35.81-.5,1.23,0,.03-.03.05-.05.07-.05.05-.12.09-.18.14-.07.07-.17.17-.14.28l-.22.22v.09c-.09.09-.24.1-.33.19-.08.08-.07.21-.15.29-.06.06-.13.08-.18.12s-.05.1-.12.18c-.42.15-.58.22-.89.54-.79.8-4.22.64-5.01-.14-.06-.06-.09-.14-.13-.21-.09,0-.1-.02-.1-.03-.03-.03-.06-.08-.1-.11-.06-.06-.12-.1-.21-.07l-.22-.2s0-.05-.02-.08c-.04-.04-.11-.08-.12-.08-.09-.08-.07-.26-.15-.34-.02,0-.05.03-.06.02l-.21-.21-.1-.04-.03-.09-.2-.2-.51-1.24c-.03-.12.06-.24.09-.36.04-.19-.14-.35-.16-.54-.06-.83.05-1.75.28-2.54l.25-.25c.09-.1.18-.2.15-.32l.13-.13c.1-.1.15-.29.25-.39l.09-.03c.28-.29.59-.52.85-.78l.08-.08.1-.05.28-.29c.71-.24,1.43-.47,2.16-.66.53-.14,2.37.29,2.75.66.04.04.05.1.09.14.12.12.33-.03.43.06.02.04.05.1.08.13.04.04.24.05.37.18.11.11.21.25.32.36l.1.09c.09.08.19.19.29.21l.23.53ZM25.34,18.74c-.12-.12-.15-.26-.25-.36l-.35-.1-.19-.19-.02-.09c-.07-.05-.14-.03-.21-.07l-.04-.09c-.11-.1-.47-.22-.65-.26-.02,0-.04,0-.05,0-.94-.25-2.58-.31-3.32.44l-.28.29s-.14.01-.2.07c-.06.06-.02.15-.07.21l-.1.05c-.28.29-.67,1.36-.66,1.76.01.35.19.63.25.97.05.31.32.54.41.84l.21.21s.03-.03.04-.02c.05.07.03.14.09.2.11.11.3.12.41.23.11.11.16.31.29.44.03.03.07.05.1.07.43.18.5.38.88.56.07.03.21.11.21.11.31.16.4.19.94.12h.1s.2.19.2.19c.67.06,1.3-.26,1.92-.44l.19-.19c.09,0,.2-.01.26-.07l.05-.1.22-.22.14-.03.05-.1.1-.05c.07-.07.1-.26.11-.36l.15-.13c.12-.12.17-.29.23-.44.31-.94.28-2.02-.46-2.78h-.06c-.07-.07-.06-.17-.12-.24l-.1-.05c-.06-.06-.02-.13-.08-.19-.08-.08-.22-.05-.32-.15Z"/>
      <path class="st2" d="M36.47,8.76c-.14.06-.27-.03-.41.02-.11.05-.21.16-.28.27l.23.56c.04.1,0,.2.04.3.04.09.15.16.23.21l.1.28c.04.09.08.17.15.23,0,.04,0,.1,0,.13l.15.62c.03.07.14.17.22.19l.22.54s-.03.04-.02.05l.11.27s.04.03.04.03c-.01.08-.02.17,0,.23l.06.05.17.42-.02.06.05.02.17.41c.05.11-.02.27.03.41.04.09.1.18.18.23l.1.24c.03.07.1.13.17.16v.1s.06.05.06.05c.08.19.06.4.12.55.06.14.22.19.28.32v.09s.09.25.09.25c.03.01.08.1.12.18.06.14.1.28.09.33l.12.29c-.02.08-.05.16-.1.23l-.39.16c-.68.28-1.86-.68-2.44-1.01-.26-.14-.56-.18-.84-.28-.82-.32-1.61-.75-2.42-1.11-.56-.25-1.11-.39-1.65-.68-.35-.19-1.82-.96-2.15-.83l-.03.13.07.07-.03.13.32.8c.03.07.12.08.15.14.02.05-.03.21.03.35.02.04.04.07.07.1.05.05.17.09.2.17-.02.17.1.5.23.82.11.26.22.51.28.67.08.19.08.42.15.58.04.09.13.11.17.19.05.12-.02.27.03.39l.06.05.04.09c.07.16.14.28.21.45.03.03.06.06.09.08l.1.25c.13.03.34,0,.46-.04.09-.04.09-.17.18-.2.07-.03.15-.02.23,0l.06.18c.03.07.09.15.18.19-.02.12,0,.25.04.36.03.06.06.11.08.17-.08.09-.14.2-.25.25-.1.04-.23.04-.39.1-.06-.05-.12-.04-.19,0-.06.03-.13.07-.18.09-.08-.01-.08-.02-.09-.02-.01,0,0,.03-.02.05l-.47.19s-.04-.03-.05-.02c-.07.03-.18.06-.28.1-.14.06-.25.13-.3.22l-.51.21c-.1-.06-.2-.11-.29-.16l-.16-.39c-.04-.1-.02-.45.1-.5h.08s.35-.13.35-.13l.05.02c.09-.04.11-.2.08-.28l-.08-.08.02-.07-.15-.49-.25-.61-.07-.07c-.04-.1,0-.22-.04-.32l-.07-.06-.21-.51.02-.05-.08-.08v-.09s-.27-.68-.27-.68l-.09-.11c-.03-.07.01-.18-.02-.27l-.07-.07c-.04-.1,0-.2-.04-.3-.05-.12-.14-.25-.19-.37v-.1s-.07-.06-.07-.06c0-.07,0-.11-.02-.15-.02-.05-.05-.05-.1-.13v-.09s-.16-.42-.16-.42h-.04s-.19-.46-.19-.46c.01-.11.01-.22-.02-.31l-.07-.03-.2-.5c-.21-.09-.27-.09-.31-.08-.02.01-.04.03-.11.06-.04.02-.1.03-.22.03l-.11.09c-.15-.05-.28-.13-.44-.2l-.12-.3c-.09-.22.13-.4.24-.56l.27-.11s.12.04.18.01c.06-.02.12-.05.16-.11l.52-.21.05.02.52-.21s0-.04.02-.05l.27-.11.06-.07s.24-.01.54-.13c0-.02,0-.05.03-.06l.24-.1c.09-.04.19,0,.28-.03.06-.03.08-.08.15-.1.12-.05.31.08.36.2v.08s.09.26.09.26l-.03.33c-.18.2-.67.23-.52.62.05.12.19.08.3.04l.1-.04c.14.02.21.16.31.24.45-.08.85.16,1.19.43,1.13.03,1.93,1.06,3.05,1.17.34.2.65.46,1.02.6.23.21.47.43.82.31.06.06.3.24.39.21s.14-.26.11-.35l-.06-.05c-.12-.3-.29-.5-.38-.72-.06-.14-.07-.29-.13-.44l-.06-.03-.13-.31.02-.06-.22-.55c-.04-.1-.15-.16-.19-.26-.07-.16-.04-.27-.09-.41-.02-.04-.04-.09-.09-.14-.01-.02,0-.13-.02-.15-.03-.06-.08-.1-.1-.15-.03-.07.01-.15-.02-.22-.02.01-.06-.03-.08-.1-.03-.07-.05-.15-.06-.18l-.06-.05c-.04-.09.02-.17-.02-.25-.04-.1-.09-.19-.19-.24.01,0,.01-.04.02-.05l-.2-.5c-.1-.03-.23-.1-.32-.07,0,.02-.13.1-.15.1l-.41.17c-.1-.06-.18-.16-.28-.22l-.12-.3-.08-.08c-.11-.27.19-.48.39-.65.14,0,.2,0,.24-.01.05-.02.06-.06.2-.11h.1s.44-.17.44-.17l.07.02s.17-.05.28-.1c.15-.06.31-.14.33-.19l.15-.02c.1-.1.19-.17.29-.21.12-.05.24-.05.39-.01l.16.46s-.03.04-.02.05c.02.05.1.04.13.11.05.11,0,.28-.12.32ZM30.46,12.8c-.07,0-.13-.05-.21-.02-.06.03-.1.07-.11.13.11-.05.24-.01.35-.04l-.03-.07Z"/>
      <path class="st2" d="M47.81,15.08v.56s-.04.09-.04.09c0,.11.01.23.08.31v.36c0,.11-.05.35-.19.35l-.11-.04-.08.04-.07-.04h-.55s-.03.04-.03.04c-.12-.07-.24-.09-.38-.09h-.16c-.01.05-.07.09-.12.09-.09-.01-.25-.05-.35-.05l-.11.05s-.11-.04-.17-.04c-.12,0-.23.08-.38.08-.29-.01-.46-.08-.71-.08h-.35c-.07,0-.12.04-.19.04-.21,0-.38-.12-.71-.12h-.09s-.03.03-.04.04h-.26s-.03-.04-.04-.04h-.11c-.17,0-.34.04-.5.04-.11,0-.21-.08-.32-.09l-.12.08-.12-.08h-.07l-.12.09h-.13s-.21.04-.21.04h-.27s-.08.04-.08.04c-.07,0-.12-.04-.19-.04-.05,0-.11.04-.16.04l-.11-.04-.07.04h-.39s.05-.05.05-.05c-.03-.03-.07-.32-.09-.39l.09-.12c0-.09.03-.21.03-.31,0-.07-.01-.13-.03-.19h.4c.16,0,.28.12.44.12.09,0,.12-.04.12-.09,0-.07-.04-.16-.04-.21l.04-.08c0-.24.09-.44.09-.52,0-.09-.09-.16-.09-.26l.05-.07v-.36s-.05-.12-.05-.12c.01-.05.04-.11.05-.17l-.05-.07v-.46s-.04-.07-.04-.07l.04-.07v-.28s0-.08,0-.08h-.04c.05-.05.09-.13.09-.23,0-.08-.04-.16-.09-.23,0-.04-.01-.12-.01-.2,0-.07.01-.13.05-.13v-.4c0-.11-.08-.17-.08-.27,0-.13.04-.28.04-.42.04-.01.05-.17.05-.28v-.36s-.07-.12-.07-.12c.01-.04.01-.08.01-.12s0-.09-.03-.13c.03-.08,0-.07.07-.12v-.68s-.04-.08-.04-.08c0-.13.09-.26.09-.38,0-.12-.19-.32-.31-.32l-.08.04h-.59s-.03-.04-.03-.04c-.08-.01-.12-.09-.12-.16l-.03-.05v-.28c0-.09.03-.17.07-.25l-.05-.11c0-.12.11-.11.12-.16.05-.03.07-.04.09-.04s.07.01.16.01c.05-.01.11-.03.15-.05h.35s.07.04.07.04h.4s.11.08.11.08h.39c.11,0,.2-.08.3-.08.09,0,.15.08.23.08.03-.01.09-.04.15-.04h.2s.11-.05.11-.05l.09.04c.07-.01.11-.03.13-.03.07,0,.07.04.19.04l.07-.04h.43c.03-.05.08-.09.13-.09s.08.07.12.09c.04.01.07.01.11.01.07,0,.15-.01.21-.01l.08.04.07-.04h.32s.09.04.09.04c.11,0,.19-.09.3-.09l.11.05s.07-.01.11-.01c.05,0,.11.01.15.05h.17s.08.04.17.04c.15,0,.28-.12.44-.12l.09.04c.24,0,.48.04.71.04l.05-.04c.15.01.2.01.25.01s.09-.01.22-.05c.12.05.28.05.38.17v.27s-.04.03-.04.04c0,.07-.01.24-.01.4,0,.16.01.32.05.36-.04.05-.05.2-.05.34,0,.09,0,.19.01.23l-.04.09.04.09v.32c-.05.05-.11.09-.18.09-.4,0-.91-1.36-1.19-1.36-.03,0-.11.04-.15.04-.12,0-.31.01-.46.01-.07,0-.13,0-.17-.01-.03,0-.03-.04-.04-.04h-.23c-.07,0-.13,0-.2-.01l-.12.07-.11-.07s-.04.01-.07.01c-.07,0-.15-.04-.21-.04-.05,0-.13.03-.19.05l-.12-.05-.09.04-.09-.04s-.05-.03-.08-.03c-.07,0-.13.05-.15.09l-.12-.07c-.08,0-.16.05-.26.08-.03.01-.04.01-.08.01-.12,0-.32-.05-.43-.05h-.34c-.23,0-.43.04-.43.36v.55s.05.07.05.07l-.04.05v.66s.03.09.04.11c-.04.08-.04.17-.04.26v.19c0,.08-.01.16-.04.24,0,.17.13.5.34.5.16,0,.27-.13.43-.13l.36.12c0-.08.07-.12.13-.12l.09.04h.46c.09.01.21-.01.34-.04h.44c.07.07.17.11.19.22.34-.01.64-.11.97-.21.01,0,.03-.01.04-.01v-.28s.07-.08.08-.13c0-.07-.04-.13-.04-.2,0-.08.07-.15.09-.21h.19c.09,0,.17.08.27.08l.09-.04h.28s.13.13.13.13v.27c0,.11,0,.21.01.24l-.05.11v.42s.04.03.04.04v.35s-.04.08-.04.08l.04.12-.04.09.04.08c0,.07-.04.12-.04.19,0,.12,0,.26.08.35,0,0-.01.43-.03.43-.11.05-.2.11-.27.2h-.28s-.08.04-.08.04c-.15,0-.27-.12-.4-.26v-.5s.04-.07.04-.07c0-.26-.32-.36-.52-.36l-.07.04h-.38s-.09-.04-.09-.04l-.15.04-.08-.04-.09.04-.07-.04c-.24,0-.48-.04-.71-.05l-.16.05s-.09.03-.13.03c-.12,0-.23-.04-.24-.08h-.54s-.09.05-.09.05l-.09-.05h-.3s-.15.15-.15.15v1.5s.04.09.04.09c0,.07-.04.12-.04.17l.04.09-.04.05c0,.07.01.15.01.23,0,.07-.01.15-.05.2v.77c.17.09.33.23.55.23l.04-.04h.38s.09-.08.09-.08h.38c.11,0,.19.08.31.08l.04-.04h.42s.09-.04.09-.04l.09.04h.48c.07,0,.11-.04.15-.08h.3c.03.07.11.09.17.09h.19s.07-.05.07-.05l.11.04c.2,0,.39-.08.59-.13.19-.42.66-.63.66-1.13v-.08c.05-.11.17-.15.28-.15.09,0,.15.09.23.13l-.04.09v.36c.05.03.08.09.09.13l-.05.11Z"/>
      <path class="st2" d="M55.96,16.86l-.09.25c.03.05.01.13-.01.21-.03.08-.07.16-.07.17l-.21.08c-.23.69-.97.69-1.55.98-.33.17-.53.02-.86.03l-.42-.14c-.36.05-.55,0-.83-.1l-.13-.04s-.1,0-.13,0l-.05-.06-.15-.05c-.33-.11-.55-.22-.76-.34-.16-.08-.62-.3-.93-.4-.01,0-.09-.07-.11-.09l-.44-.15c-.37-.61-.53-.21-.28-.92l.03-.1s-.01-.13-.03-.15l.15-.45c.04-.11.08-.27.02-.36l.12-.34-.02-.08c.08-.24.36-.22.55-.15.25.09.46,1.33.54,1.62l.55.19c.15.19.24.54.49.62l.08-.02.36.12c.06.02.11-.06.18-.04.06.02.06.11.12.14l.12-.02c.22.09.4.15.63.23.36.12,1.5-.14,1.63-.54l.16-.47c.07-.22-.3-1.36-.51-1.43l-.18-.06c-.23-.08-.22-.19-.31-.38-.87-.58-1.64-1.3-2.45-1.97-.2-.54-.35-1.08-.53-1.61l.1-.28s.04.01.05-.01c-.01-.13-.05-.4,0-.51.22-.64,1.7-1.75,2.37-1.66.04,0,.08.01.12.03.06.02.14.06.2.08.15.05.3,0,.44-.08.19.04.36.02.54.08l.2.07.07.08.05-.03.38.13.03.05.44.15.06-.04.74.25c.32.11.36.39,1.18.67.03.12.08.24.16.34l-.1.31c-.05.15-.21.23-.25.37v.1s-.08.27-.08.27l-.07.08v.1s-.13.39-.13.39c-.07.05-.15.09-.22.11l-.28-.09c.18-.53-.77-1.52-1.24-1.68-.39-.13-.71-.33-1.12-.46l-.05-.06c-.28-.09-1.66,0-1.77.28l.06.15c-.09.04-.21.13-.24.22-.15.43.69,1.95,1.13,2.1.01,0,.04,0,.06,0,.04.01.1,0,.14,0,.18.06.62.51.7.69l.55.19c.32.48.82.8,1.12,1.29.11.15.06.32.07.49.01.13.04.25.18.34.02.15,0,.77.02.77l-.12.34s-.05.01-.05.02c0,.03,0,.09,0,.11l-.07.08Z"/>
      <path class="st2" d="M69.46,31.38l-.23.13c-.02.05-.08.11-.15.14s-.16.07-.17.08l-.21-.08c-.63.35-1.18-.14-1.8-.32-.36-.09-.41-.34-.66-.55l-.22-.39c-.3-.2-.41-.37-.55-.63l-.07-.12s-.07-.07-.09-.09v-.08s-.08-.14-.08-.14c-.17-.3-.26-.53-.33-.77-.06-.17-.26-.64-.42-.92,0-.01-.02-.11-.02-.14l-.23-.41c.13-.7-.25-.51.41-.87l.09-.05s.08-.11.08-.14l.41-.23c.11-.06.24-.15.26-.25l.32-.18.04-.07c.22-.12.41.08.51.25.13.23-.56,1.29-.68,1.56l.28.5c-.02.24-.18.56-.06.78l.07.04.18.33c.03.06.12.02.16.1.03.06-.02.12,0,.19l.1.07c.11.22.2.38.31.59.18.33,1.2.9,1.57.69l.43-.24c.2-.11.69-1.21.59-1.4l-.09-.16c-.12-.21-.04-.29.02-.49-.25-1.01-.35-2.06-.5-3.1.21-.53.46-1.04.69-1.55l.26-.14s.02.04.04.02c.08-.11.23-.33.34-.39.59-.33,2.43-.16,2.87.35.03.03.05.06.07.1.03.06.06.14.09.19.08.14.22.2.38.24.11.15.25.26.34.42l.1.19v.11s.05.02.05.02l.2.35-.02.05.23.41h.07s.38.69.38.69c.16.29,0,.53.42,1.28-.06.11-.1.23-.11.35l-.28.16c-.14.08-.3.03-.43.1l-.06.08-.25.14h-.1s-.06.09-.06.09l-.36.2c-.09-.01-.17-.03-.24-.07l-.14-.26c.49-.27.45-1.65.21-2.08-.2-.36-.31-.72-.52-1.09v-.08c-.14-.26-1.22-1.12-1.49-.98l-.05.15c-.09-.03-.24-.05-.32,0-.4.22-.8,1.9-.57,2.31,0,.01.03.03.04.04.02.04.08.06.1.1.09.16.12.79.06.98l.28.5c-.08.57.07,1.14-.03,1.71-.02.18-.17.28-.28.41-.08.11-.14.22-.1.38-.08.12-.51.58-.5.59l-.32.18s-.04-.02-.05-.02c-.02.01-.06.06-.07.09h-.1Z"/>
      <path class="st2" d="M76.76,39.51c-.27-.11-.65.03-.73-.35-.03-.16.13-.3.27-.33.09-.02.19.04.27.03.18-.04.35-.14.46-.29-.04,0-.07-.07-.09-.15-.01-.07-.01-.13-.02-.15l-.09-.04-.07-.33c-.02-.09-.08-.19-.1-.27-.03-.13.07-.26.04-.39-.02-.09-.16-.16-.18-.25l.03-.06-.09-.45c.04-.05.07-.11.09-.17-.06-.02-.1-.06-.12-.11l.02-.09c-.07-.07-.09-.09-.09-.1s0-.03,0-.06l-.06-.1.03-.12-.38-.22c-.13.03-.5.31-.63.42l-.32.07-.05-.03-.04.05-.33.07-.05-.03c-.1.02-.15.11-.26.14-.07.01-.14-.01-.22,0l-.06.05-.72.15s-.03-.03-.05-.03l-.42.09-.04.05c-.12.02-.23-.03-.38,0-.09.02-.18-.02-.26,0l-.04.06-.91.19c-.09.02-.2-.04-.29-.03-.09.02-.18.13-.26.15l-.08-.04-.35.07-.3-.06c-.13.03-.47.24-.56.35l.06.3c.04.06.27.44.28.46.01.07-.01.13,0,.19-.1.02-.2.08-.31.11-.2.04-.67.06-.82-.1l-.12-.59c-.01-.12-.01-.26-.04-.4l.03-.05-.05-.04c-.01-.07-.04-.13-.05-.18-.06-.3-.07-.62-.14-.9-.02-.1-.09-.19-.14-.27-.02-.02-.02-.04-.03-.06-.02-.12,0-.29-.01-.31-.06,0-.14-.19-.16-.31.06-.12.13-.22.21-.32l.32-.07.08-.06.41.05.07.35c0,.11,0,.25.03.39.04.18.16.19.28.16l.14-.03c.16-.03.34.07.68,0l.13-.11.34-.07.05-.07c.15-.02.21.09.59.01l.11-.06c.05-.01.11,0,.19,0,.1-.02.29-.14.39-.16l.07.03.35-.07.07.03.68-.14c.14-.03.24.07.33.05.09-.02.14-.1.2-.17l.81-.17.03.03.26-.06s.02.04.03.03c.12-.02.21-.13.33-.15.09-.02.27.07.62,0,.01,0,.02-.02.02-.03.09.04.18,0,.28.05-.02-.08,0-.25-.02-.34-.05-.11-.1-.23-.13-.34,0-.04,0-.09-.01-.13l.03-.07c-.02-.08-.08-.13-.12-.18l-.06-.28c-.02-.08.05-.17.03-.27l-.05-.04c-.02-.11-.09-.3-.09-.28l-.02-.08c-.03-.14-.03-.28-.06-.41-.02-.09-.05-.19-.15-.26-.1-.47-.41-.63-.79-.89-.04.02-.06.03-.06.03-.03,0-.03,0-.06-.04l-.06-.26c.01-.13.03-.3.09-.42h.07c.33.14.68.21,1.05.2.26.19.35.19.67.12.21.07.42.09.61.17l.07.32c.07.33-.33.27-.27.52.01.07.07.12.08.19.02.11,0,.22.02.34,0,.03.02.05.03.08l-.06.05.06.11s.1.08.1.1c.01.07-.01.13-.08.15l.06.08-.03.13c.07.01.08.16.15.2l.08.37-.07.12.17.17.06.28-.02.1c.02.08.11.11.12.19.01.07-.06.12-.04.19l.09.43c.02.09.09.19.13.25l-.03.07.05.26-.02.1.07.14-.02.11c.02.09.06.22.14.29l.06.28-.06.11.06.1-.09.22.2.29c.02.08.01.12-.05.16l.07.34.11.13-.03.06.09.43.06.08c.02.08-.05.15-.03.23.05.22.47.59.62.75l.06.28s-.07.07-.05.15l-.28.06c-.41.09-1.06-.34-1.7-.2Z"/>
      <path class="st2" d="M77.12,49.95c0-.19.07-.38.07-.56-.15-.08-.48-.15-.66-.15-.11,0-.04.16-.3.16h-.12c-.11,0-.23-.01-.24-.09h-.05c-.08,0-.13-.07-.2-.07-.13,0-.21.15-.35.15l-.13-.05-.11.05-.11-.05c-.09,0-.21.12-.27.19l-.07-.07c-.08,0-.11.11-.19.11-.11,0-.17-.11-.28-.11h-.6l-.08-.08h-.24c-.08.07-.19.08-.28.08-.11,0-.2-.03-.31-.03v-.05s-.04.01-.05.01c-.04,0-.11-.04-.13-.05l-.04.04c-.11-.07-.23-.11-.34-.17l-.13.08c-.07-.04-.15-.09-.21-.16-.03.01-.09.04-.15.04h-.19c-.08-.05-.43-.03-.73-.3-.04,0-.08-.01-.11-.01-.28-.2-.55-.43-.81-.66-.12-.11-.25-.27-.38-.35l-.11-.05c-.04-.07-.04-.09-.04-.15v-.08c0-.05-.01-.08-.04-.12-.15-.31-.19-.85-.31-1.09-.01-.12-.01-.24-.05-.35.03-.89.05-1.14.25-1.99l.07-.07v-.07s.34-.48.34-.48l-.04-.05.08-.05c.03-.08.12-.2.13-.21.09-.12.32-.38.46-.39.16-.19.25-.11.32-.24l.08-.05s.04.01.05.01c.04,0,.04-.01.08-.01.05-.07.15-.11.2-.16.12-.01.21-.12.34-.12.03,0,.04,0,.07.01l.03-.07h.11s.11-.03.15-.04h.24l.04.05.11-.09h.35c.07-.03.08-.03.11-.03s.04.01.16.01l.05-.04c.15.01.28.04.42.04l.08.07h.25s.03-.05.07-.05c.15,0,.28-.05.43-.05l.11.07c.2,0,.42-.03.63-.03,0,0,.03-.04.04-.04.08,0,.15.04.23.04l.13.07c.11,0,.17-.11.28-.11l.11.04.08-.04h.21l.12.07c.19,0,.36-.07.54-.07.05,0,.13.03.17.07.09-.04.26-.11.36-.11.05,0,.11.03.15.07.07-.05.15-.08.23-.12l-.04-.04.05-.04c-.04-.09-.07-.17-.07-.27,0-.16.17-.27.25-.4h.48c.12,0,.28.16.28.28,0,.21-.03.44-.03.66l-.04.09.07.15c0,.11-.03.21-.03.32l-.04.05.07.12c0,.08-.07.15-.07.23,0,.11.04.2.11.3v.26c-.05.09-.05.21-.05.32v.12c0,.23-.03.44-.36.44-.05.05-.13.12-.21.12-.12,0-.4-.12-.46-.24l.03-.08-.07-.08v-.09s.07-.04.07-.11c-.07-.2,0-.51-.23-.6-.03,0-.04.03-.07.03-.08.04-.13.08-.27.08-.11,0-.25-.11-.42-.11-.04,0-.07.01-.09.04h-.66l-.07.08h-.31l-.08-.08s-.09.07-.15.07c-.07,0-.13-.05-.19-.11-.01,0-.03.01-.04.01-.13.07-.28.13-.43.13h-.4c-.03-.05-.08-.11-.15-.11-.13,0-.26.07-.42.07-.13,0-.26-.01-.35-.11l-.11.07c-.05-.03-.05-.04-.08-.04-.01,0-.03.01-.05.01l-.2.05c-.04-.05-.11-.09-.17-.09-.16,0-.25.15-.4.15-.07,0-.11-.07-.17-.07l-.15.07c-.03.15-.16.19-.3.19-.07,0-.15,0-.21-.01-.19.13-.31.36-.54.47,0,.05-.03.12-.08.15-.08.15-.07.38-.23.48l.03.09c-.07.16-.03.39-.23.46v.67c0,1.24,1.36,2.24,2.52,2.24l.05-.04h.24c.19.11.44.11.64.11.36,0,.44-.15.64-.15.07,0,.11.05.16.11h.24l.03-.07s.07.01.11.01c.09,0,.19-.05.28-.05.03.04.07.07.12.07l.09-.07c.09,0,.13.11.23.11.05,0,.17-.07.24-.08.13-.05.28-.07.42-.07.04.04.11.05.16.05h.07c.05,0,.11,0,.13.05h.75c.03-.07.09-.11.15-.15v-.24c-.07-.07-.08-.16-.08-.24,0-.09.01-.17.01-.25l.12-.12c.15.03.32.01.47.07.03,0,.13-.05.15-.05.09,0,.31.28.31.38,0,.12-.09.2-.15.31.08.05.11.16.11.27,0,.08-.07.15-.07.24,0,.08.07.16.07.24l-.07.15.07.13-.07.07.03.07-.11.15c.19.15.19.48.19.71-.11.05-.08.24-.13.34-.16,0-.32-.01-.5-.01l-.11.04c-.13,0-.35-.19-.35-.34Z"/>
      <path class="st2" d="M73,60.5s-.03.04-.04.04h-.39c-.07-.01-.09-.09-.16-.1h-.43c-.68-.03-2.82-1.89-2.8-2.61v-.05s.04-.09.05-.12c.01-.47-.3-.75-.28-1.51,0-.07-.02-.16-.05-.24,0-.11.03-.46.03-.8s0-.68-.03-.73c.07-.16.1-.43.11-.67-.01-.01-.04-.55-.04-.56v-.39c.02-.2.02-.42-.02-.47l.04-.15-.04-.04v-.46s.05-.05.05-.05l-.04-.08c0-.12.16-.13.22-.21l.63.02c.07,0,.17.13.21.18v.28c-.01.13-.15.22-.15.37,0,.12.12.19.18.27h.28s.11-.03.11-.03l.12.04h.4c.07-.04.15-.07.23-.06h.16s.11.06.11.06h.27s.08.04.08.04l.07-.04h.52s.04-.01.05-.01c.04,0,.07.04.12.08l.31-.03.18-.05c.07,0,.11.04.17.04l.08-.04h.38c.05.04.05.09.1.11l.12-.09h.36s.08.05.08.05l.07-.04h.54s.03.03.03.06c.04,0,.16,0,.28,0,.12,0,.24.02.27.06.15,0,.3-.03.46-.03.17,0,.36.06.55.07.3,0,.69-.08.69-.38,0-.05,0-.12-.05-.2l.06-.09-.03-.36h.12s.46,0,.46,0c.07,0,.08.1.15.1h.34c.08.01.11.23.11.29,0,.08-.08.15-.09.23v.28s.03.07.03.07c-.03.08-.04.12-.04.15,0,.07.04.07.04.18l-.04.11v.55s.02.04.02.04v.39s-.05.03-.05.04l-.02.6c0,.08.08.11.08.19,0,.07-.04.13-.05.2l.04.05c-.07.19-.1.39-.11.59,0,.2,0,.39,0,.58l.04.04v.44c-.05.07-.14.13-.14.21l.04.05v.32s-.11.27-.11.47c-.17.22-.17.32-.18.59-.52.97-2.43,2.34-3.55,2.31-.11,0-.11-.04-.15-.06-.09,0-.18.02-.24.07l-.71-.02c-.05-.04-.12-.11-.2-.13ZM74.24,58.96h.43c.97.04,2.39-1.56,2.42-2.49v-.3s0-.07-.03-.08c0-.11.1-.2.1-.32,0-.16-.11-.33-.11-.51,0-.07.03-.15.07-.23-.04-.08-.05-.18-.05-.27,0-.19.06-.4.07-.56,0-.15-.08-.19-.16-.19-.09,0-.19.04-.26.03-.05,0-.12-.02-.16-.04h-.23c-.07,0-.11-.05-.16-.05-.04,0-.07.03-.11.08l-.13-.04c-.05.03-.07.04-.08.04-.03,0-.04-.01-.09-.04-.05,0-.12.04-.19.04-.11,0-.2-.09-.32-.09-.09,0-.16.08-.26.07,0-.01-.01-.04-.04-.04-.13,0-.24.07-.49.07-.04,0-.25-.1-.35-.1-.05,0-.15.09-.2.09s-.07-.06-.12-.06c-.12,0-.22.09-.34.09-.08,0-.27-.09-.47-.09-.11-.04-.16-.07-.19-.07-.05,0-.02.07-.15.06-.07,0-.12-.04-.19-.05l-.1.04h-.34c-.12-.01-.23.03-.26.02-.05,0-.19-.05-.24-.05h-.35s-.08-.05-.08-.05l-.09.04-.89-.02c-.08,0-.26.15-.26.22,0,.17.06.28.05.46v.05c.06.15.07,1,.06,1.21l-.04.05.04.05v.35s-.05.05-.05.05c.07.04.09.11.09.18,0,.07-.02.12-.02.17-.02.75,1.23,1.76,1.84,2.05h.48c.17.08.27.1.4.1h.15c.07,0,.09.1.16.1h.48s.07-.03.07-.03c.2,0,.37.09.6.1,0-.01.01-.04.04-.04Z"/>
      <path class="st2" d="M75.7,65.89l.11-.11c-.01-.06-.02-.07-.02-.1,0-.01.02-.02.06-.07.05-.21-.23-.4-.41-.45-.08-.02-.12.14-.23.11-.1-.03-.17-.1-.24-.19-.06.01-.07.02-.1.02-.01,0-.02-.02-.07-.06-.13-.03-.14.05-.21.03-.04,0-.07-.03-.12-.07-.05-.01-.12-.02-.2-.04-.12-.03-.23-.08-.28-.17l-.07-.02s-.04,0-.1.07c-.18-.05-.35-.06-.54-.05l-.06-.07-.72-.18-.09.02c-.14-.04-.24-.19-.39-.22l-.06.03-.19-.06s-.15,0-.17.01l-.7-.17-.09.02c-.14-.04-.23-.18-.36-.21-.14-.04-.28.07-.42.03l-.09-.06c-.12-.03-.13.02-.21,0-.03,0-.05-.03-.07-.03-.09-.02-.2-.04-.29.01-.09-.13-.27-.19-.41-.23-.14-.04-.2.06-.22.18-.05.18,0,.37-.05.55-.02.09-.08.17-.1.25-.09.02-.12.03-.13.02-.01,0-.02-.02-.06-.05l-.31-.08-.03-.06-.05.04-.33-.08-.1-.16.07-.27c.04-.17.16-.31.21-.51-.01,0-.04-.02-.03-.05l.03-.13c.03-.1.06-.23.04-.31.04-.06.07-.13.09-.21l.04-.17c.02-.08.04-.16.09-.2,0-.07-.02-.1,0-.13,0-.03.02-.02.06-.07.02-.09.06-.19.09-.3.03-.1.04-.2-.02-.3l.12-.48c.11-.04.22-.17.34-.14.1.03.13.16.22.18h.11c.27.05.31.12.28.24-.02.07-.05.14-.08.26-.02.07,0,.13,0,.19-.02.09-.05.15-.07.22-.03.13,0,.21.28.28.12.03.24-.02.37,0,.1.03.08.06.15.08.03,0,.07,0,.15,0l.07.06,1.22.3.1-.02.36.09c.08.07.18.18.28.21l.08-.04s.11.07.13.07c.17.04.33-.09.49-.04.02.03.06.06.09.06.05.01.09,0,.14,0,.02.02.05.04.06.04.23.06.48.06.7.12.05.01.12.08.21.12,0,.02.04.02.05.03.04,0,.08,0,.14,0,.08.02.13.07.2.09.12.03.21-.03.33,0l.08.06c.23.06.47.07.7.13.03,0,.19.13.38.18.12.03.26-.1.35-.15l.04-.16c.02-.06.03-.12,0-.19l.06-.25c.05-.22.24-.26.44-.21.08.02.15.05.21.09.04,0,.1,0,.16.01.14.04.29.13.26.24,0,.03-.01.05-.03.08.04.05.05.12.04.19-.02.09-.15.25-.17.35,0,.04.01.13,0,.15-.03.12-.17.18-.2.31-.05.18.03.37-.02.56-.02.07-.06.08-.07.13,0,.01,0,.04.02.08-.04.16-.12.32-.16.47-.02.08.05.15.02.24-.01.05-.07.11-.08.17-.12.47-.19.67-.81.52-.36-.09-.35-.45-.28-.72Z"/>
      <path class="st2" d="M66.04,75.02h-.1c-.11-.07-.18-.3-.32-.38h-.09c-.14-.08-.31-.44-.41-.64-.16-.29-.33-.56-.43-.88-.12-.39-.33-1.13-.32-1.52.02-.44.13-.87.16-1.31,0-.03.02-.05.03-.08.03-.06.1-.11.14-.18.05-.08.12-.21.06-.3l.15-.27v-.08c.05-.1.18-.15.25-.27.05-.09.02-.22.07-.31.04-.07.11-.11.14-.17.03-.06.02-.11.07-.21.36-.26.5-.36.72-.75.56-.98,3.91-1.7,4.88-1.15.07.04.12.11.18.17.09-.01.1,0,.11,0,.03.02.07.06.12.09.07.04.15.07.22.02l.26.14s0,.05.04.07c.05.03.13.04.14.05.1.06.13.23.24.29.02,0,.04-.04.05-.03l.26.15h.1s.05.09.05.09l.24.14.81,1.07c.06.11,0,.25,0,.37.01.19.23.3.3.48.27.79.4,1.7.38,2.52l-.17.3c-.07.12-.12.24-.06.35l-.09.16c-.07.13-.07.31-.15.44l-.07.05c-.2.35-.43.65-.62.98l-.05.09-.09.07-.2.35c-.62.42-1.26.82-1.92,1.19-.48.27-2.37.33-2.82.07-.05-.03-.07-.09-.12-.12-.15-.09-.31.11-.43.05-.03-.03-.07-.09-.11-.11-.05-.03-.24.02-.4-.08-.14-.08-.27-.18-.41-.26l-.12-.07c-.1-.06-.23-.13-.33-.13l-.36-.45ZM67.65,73.99c.15.09.22.22.33.28h.37s.23.14.23.14l.04.09c.08.03.14,0,.22.02l.06.08c.13.07.51.09.69.09.02,0,.04,0,.05,0,.97,0,2.58-.37,3.09-1.27l.2-.35c.03-.06.14-.05.18-.12.04-.07-.02-.15.02-.22l.09-.07c.2-.35.29-1.49.19-1.87-.1-.34-.35-.55-.49-.87-.13-.29-.44-.44-.62-.71l-.26-.15s-.02.04-.03.03c-.06-.05-.06-.13-.13-.17-.14-.08-.32-.04-.46-.12-.14-.08-.24-.26-.39-.35-.04-.02-.08-.03-.12-.04-.46-.06-.58-.24-.99-.32-.07-.01-.23-.06-.23-.06-.34-.07-.43-.08-.94.13l-.1.04-.24-.14c-.67.11-1.19.59-1.75.92l-.13.23c-.09.03-.19.06-.23.13l-.02.11-.15.27-.13.06-.02.11-.09.07c-.05.08-.03.27-.02.38l-.11.17c-.09.15-.09.32-.11.48-.06.99.25,2.03,1.16,2.57l.05-.02c.08.05.1.15.18.2l.11.02c.07.04.05.12.12.16.09.05.22-.01.35.06Z"/>
    </g>
    <path class="st3" d="M51.62,36.02l-.08.04s.02-.05.04-.08c.02,0,.03.02.04.04Z"/>
  </g>
</svg>